<?xml version="1.0" encoding="UTF-8" standalone="no"?>
<!-- Created with Inkscape (http://www.inkscape.org/) -->

<svg
   xmlns:dc="http://purl.org/dc/elements/1.1/"
   xmlns:cc="http://creativecommons.org/ns#"
   xmlns:rdf="http://www.w3.org/1999/02/22-rdf-syntax-ns#"
   xmlns:svg="http://www.w3.org/2000/svg"
   xmlns="http://www.w3.org/2000/svg"
   xmlns:sodipodi="http://sodipodi.sourceforge.net/DTD/sodipodi-0.dtd"
   xmlns:inkscape="http://www.inkscape.org/namespaces/inkscape"
   version="1.1"
   id="svg94885"
   xml:space="preserve"
   width="800"
   height="800"
   viewBox="0 0 800 800"
   sodipodi:docname="umbrellas-publicdomainvectors.org.svg"
   inkscape:version="0.92.4 (5da689c313, 2019-01-14)"><metadata
     id="metadata94891"><rdf:RDF><cc:Work
         rdf:about=""><dc:format>image/svg+xml</dc:format><dc:type
           rdf:resource="http://purl.org/dc/dcmitype/StillImage" /><dc:title></dc:title></cc:Work></rdf:RDF></metadata><defs
     id="defs94889"><clipPath
       clipPathUnits="userSpaceOnUse"
       id="clipPath94901"><path
         d="M 0,600 H 600 V 0 H 0 Z"
         id="path94899"
         inkscape:connector-curvature="0" /></clipPath></defs><sodipodi:namedview
     pagecolor="#ffffff"
     bordercolor="#666666"
     borderopacity="1"
     objecttolerance="10"
     gridtolerance="10"
     guidetolerance="10"
     inkscape:pageopacity="0"
     inkscape:pageshadow="2"
     inkscape:window-width="797"
     inkscape:window-height="480"
     id="namedview94887"
     showgrid="false"
     inkscape:zoom="0.295"
     inkscape:cx="400"
     inkscape:cy="400"
     inkscape:window-x="0"
     inkscape:window-y="0"
     inkscape:window-maximized="0"
     inkscape:current-layer="g94893" /><g
     id="g94893"
     inkscape:groupmode="layer"
     inkscape:label="umbrellas-publicdomainvectors.org"
     transform="matrix(1.3333333,0,0,-1.3333333,0,800)"><g
       id="g94895"><g
         id="g94897"
         clip-path="url(#clipPath94901)"><path
           d="m 298.09,527.493 v 0 c 0.905,0 1.646,-0.741 1.646,-1.647 v -20.585 c 0,-0.906 -0.741,-1.647 -1.646,-1.647 -0.907,0 -1.648,0.741 -1.648,1.647 v 20.585 c 0,0.906 0.741,1.647 1.648,1.647"
           style="fill:#cccccc;fill-opacity:1;fill-rule:evenodd;stroke:none"
           id="path94903"
           inkscape:connector-curvature="0" /><path
           d="m 101.103,431.692 c 16.324,2.458 29.587,1.706 39.323,-6.265 26.485,4.428 52.214,3.932 76.503,-5.913 55.981,9.727 110.212,11.133 161.8,0 22.972,7.333 47.429,11.198 75.342,6.998 10.719,6.885 23.561,7.079 40.867,5.18 -8.25,8.305 -16.5,16.609 -24.749,24.913 -92.8,57.253 -138.001,59.641 -184.043,58.131 -95.064,-1.488 -151.826,-64.401 -171.341,-70.83 -2.441,-1.789 -4.88,-3.579 -7.321,-5.368 -2.127,-2.282 -4.255,-4.564 -6.381,-6.846"
           style="fill:#225485;fill-opacity:1;fill-rule:evenodd;stroke:none"
           id="path94905"
           inkscape:connector-curvature="0" /><path
           d="m 101.103,431.692 c 28.975,46.343 99.066,79.925 182.446,83.432 -67.63,-3.996 -124.696,-35.611 -150.239,-79.358 -13.143,5.06 -24.225,2.389 -32.207,-4.074"
           style="fill:#79b5f2;fill-opacity:1;fill-rule:evenodd;stroke:none"
           id="path94907"
           inkscape:connector-curvature="0" /><path
           d="m 462.73,435.766 c -25.501,43.69 -82.336,75.278 -149.836,79.341 83.204,-3.598 153.116,-37.147 182.044,-83.415 -7.008,5.291 -17.845,7.56 -32.208,4.074"
           style="fill:#336699;fill-opacity:1;fill-rule:evenodd;stroke:none"
           id="path94909"
           inkscape:connector-curvature="0" /><path
           d="m 133.31,435.766 c 26.551,45.459 87.189,77.688 158.313,79.549 -40.01,-2.956 -74.12,-33.148 -90.253,-75.636 -30.154,9.277 -53.495,5.301 -68.06,-3.913"
           style="fill:#68a1dc;fill-opacity:1;fill-rule:evenodd;stroke:none"
           id="path94911"
           inkscape:connector-curvature="0" /><path
           d="m 294.687,241.357 h 6.806 v 230.556 h -6.806 z"
           style="fill:#cccccc;fill-opacity:1;fill-rule:evenodd;stroke:none"
           id="path94913"
           inkscape:connector-curvature="0" /><path
           d="m 394.672,439.679 c -16.123,42.498 -50.134,72.694 -90.144,75.638 71.16,-1.831 131.653,-34.068 158.203,-79.551 -18.27,11.57 -41.473,11.666 -68.059,3.913"
           style="fill:#457aaf;fill-opacity:1;fill-rule:evenodd;stroke:none"
           id="path94915"
           inkscape:connector-curvature="0" /><path
           d="m 295.877,241.357 h 2.9 v 230.556 h -2.9 z"
           style="fill:#e3e3e3;fill-opacity:1;fill-rule:evenodd;stroke:none"
           id="path94917"
           inkscape:connector-curvature="0" /><path
           d="m 201.37,439.679 c 16.996,44.76 53.943,75.875 96.72,75.875 42.775,0 79.6,-31.115 96.582,-75.875 -65.29,16.176 -130.209,15.891 -193.302,0"
           style="fill:#568ec6;fill-opacity:1;fill-rule:evenodd;stroke:none"
           id="path94919"
           inkscape:connector-curvature="0" /><path
           d="m 238.487,214.474 c 0,7.676 11.671,7.676 11.671,0 0,-11.565 9.483,-21.048 21.047,-21.048 11.566,0 21.05,9.482 21.05,21.048 v 26.883 c 0,7.677 11.67,7.677 11.67,0 v -26.883 c 0,-18.007 -14.711,-32.718 -32.72,-32.718 -18.005,0 -32.718,14.711 -32.718,32.718"
           style="fill:#225485;fill-opacity:1;fill-rule:evenodd;stroke:none"
           id="path94921"
           inkscape:connector-curvature="0" /><path
           d="m 243.126,215.399 c 0,-16.335 12.631,-29.691 28.079,-29.691 15.45,0 28.081,13.356 28.081,29.691 v 26.885 c 0,0.995 -0.3,1.837 -1.148,2.338 -0.454,0.269 -0.991,0.392 -1.508,0.392 -1.603,0 -2.656,-0.987 -2.656,-2.73 v -26.885 c 0,-13.235 -10.251,-24.073 -22.769,-24.073 -12.516,0 -22.767,10.838 -22.767,24.073 0,0.997 -0.3,1.839 -1.148,2.339 -0.453,0.269 -0.989,0.393 -1.508,0.393 -1.603,0 -2.656,-0.987 -2.656,-2.732"
           style="fill:#568ec6;fill-opacity:1;fill-rule:evenodd;stroke:none"
           id="path94923"
           inkscape:connector-curvature="0" /><path
           d="m 450.239,352.867 v 0 c 0.59,0 1.073,-0.481 1.073,-1.072 v -13.406 c 0,-0.591 -0.483,-1.074 -1.073,-1.074 -0.589,0 -1.071,0.483 -1.071,1.074 v 13.406 c 0,0.591 0.482,1.072 1.071,1.072"
           style="fill:#cccccc;fill-opacity:1;fill-rule:evenodd;stroke:none"
           id="path94925"
           inkscape:connector-curvature="0" /><path
           d="m 321.949,290.476 c 10.63,1.601 19.269,1.112 25.611,-4.08 17.248,2.883 34.003,2.56 49.823,-3.851 36.458,6.335 71.776,7.25 105.375,0 14.96,4.774 30.888,7.293 49.068,4.558 6.98,4.482 15.344,4.608 26.614,3.373 -5.373,5.409 -10.745,10.816 -16.118,16.225 -60.438,37.287 -89.876,38.842 -119.861,37.86 -61.911,-0.971 -98.879,-41.943 -111.589,-46.13 -1.59,-1.166 -3.178,-2.332 -4.768,-3.496 -1.385,-1.487 -2.769,-2.973 -4.155,-4.459"
           style="fill:#b31d4f;fill-opacity:1;fill-rule:evenodd;stroke:none"
           id="path94927"
           inkscape:connector-curvature="0" /><path
           d="m 321.949,290.476 c 18.869,30.18 64.518,52.052 118.821,54.337 -44.045,-2.603 -81.211,-23.194 -97.846,-51.684 -8.56,3.295 -15.777,1.557 -20.975,-2.653"
           style="fill:#f791b3;fill-opacity:1;fill-rule:evenodd;stroke:none"
           id="path94929"
           inkscape:connector-curvature="0" /><path
           d="m 557.466,293.129 c -16.61,28.454 -53.625,49.027 -97.585,51.673 54.187,-2.344 99.72,-24.194 118.559,-54.326 -4.564,3.445 -11.622,4.923 -20.974,2.653"
           style="fill:#cc3366;fill-opacity:1;fill-rule:evenodd;stroke:none"
           id="path94931"
           inkscape:connector-curvature="0" /><path
           d="m 342.924,293.129 c 17.292,29.605 56.783,50.595 103.103,51.808 -26.055,-1.926 -48.27,-21.589 -58.777,-49.26 -19.64,6.043 -34.84,3.454 -44.326,-2.548"
           style="fill:#ec7aa0;fill-opacity:1;fill-rule:evenodd;stroke:none"
           id="path94933"
           inkscape:connector-curvature="0" /><path
           d="m 448.023,166.518 h 4.433 v 150.153 h -4.433 z"
           style="fill:#cccccc;fill-opacity:1;fill-rule:evenodd;stroke:none"
           id="path94935"
           inkscape:connector-curvature="0" /><path
           d="m 513.14,295.677 c -10.5,27.678 -32.651,47.344 -58.706,49.261 46.342,-1.193 85.739,-22.188 103.032,-51.809 -11.901,7.535 -27.011,7.598 -44.326,2.548"
           style="fill:#d74b79;fill-opacity:1;fill-rule:evenodd;stroke:none"
           id="path94937"
           inkscape:connector-curvature="0" /><path
           d="m 448.799,166.518 h 1.889 v 150.153 h -1.889 z"
           style="fill:#e3e3e3;fill-opacity:1;fill-rule:evenodd;stroke:none"
           id="path94939"
           inkscape:connector-curvature="0" /><path
           d="m 387.25,295.677 c 11.068,29.15 35.131,49.416 62.989,49.416 27.86,0 51.842,-20.266 62.901,-49.416 -42.52,10.535 -84.8,10.35 -125.89,0"
           style="fill:#e2628d;fill-opacity:1;fill-rule:evenodd;stroke:none"
           id="path94941"
           inkscape:connector-curvature="0" /><path
           d="m 411.423,149.01 c 0,4.997 7.599,4.997 7.599,0 0,-7.533 6.176,-13.709 13.709,-13.709 7.533,0 13.707,6.176 13.707,13.709 v 17.508 c 0,4.999 7.602,4.999 7.602,0 V 149.01 c 0,-11.729 -9.582,-21.31 -21.309,-21.31 -11.727,0 -21.308,9.581 -21.308,21.31"
           style="fill:#b31d4f;fill-opacity:1;fill-rule:evenodd;stroke:none"
           id="path94943"
           inkscape:connector-curvature="0" /><path
           d="m 414.443,149.612 c 0,-10.639 8.226,-19.337 18.288,-19.337 10.061,0 18.288,8.698 18.288,19.337 v 17.509 c 0,0.649 -0.197,1.196 -0.748,1.523 -0.295,0.173 -0.645,0.255 -0.982,0.255 -1.044,0 -1.731,-0.643 -1.731,-1.778 v -17.509 c 0,-8.621 -6.675,-15.678 -14.827,-15.678 -8.152,0 -14.828,7.058 -14.828,15.678 0,0.65 -0.195,1.198 -0.747,1.523 -0.297,0.175 -0.645,0.256 -0.982,0.256 -1.044,0 -1.731,-0.645 -1.731,-1.779"
           style="fill:#e2628d;fill-opacity:1;fill-rule:evenodd;stroke:none"
           id="path94945"
           inkscape:connector-curvature="0" /><path
           d="m 143.363,352.916 v 0 c 0.59,0 1.073,-0.482 1.073,-1.073 v -13.412 c 0,-0.59 -0.483,-1.073 -1.073,-1.073 -0.589,0 -1.071,0.483 -1.071,1.073 v 13.412 c 0,0.591 0.482,1.073 1.071,1.073"
           style="fill:#cccccc;fill-opacity:1;fill-rule:evenodd;stroke:none"
           id="path94947"
           inkscape:connector-curvature="0" /><path
           d="m 15.017,290.497 c 10.636,1.602 19.278,1.112 25.622,-4.082 17.256,2.886 34.019,2.563 49.844,-3.852 36.475,6.336 71.808,7.253 105.421,0 14.967,4.778 30.903,7.296 49.089,4.559 6.985,4.486 15.352,4.613 26.626,3.375 -5.374,5.412 -10.748,10.82 -16.123,16.232 -60.466,37.303 -89.915,38.858 -119.913,37.875 -61.939,-0.968 -98.923,-41.959 -111.638,-46.149 -1.59,-1.166 -3.18,-2.332 -4.77,-3.498 -1.386,-1.486 -2.771,-2.973 -4.158,-4.46"
           style="fill:#3e6913;fill-opacity:1;fill-rule:evenodd;stroke:none"
           id="path94949"
           inkscape:connector-curvature="0" /><path
           d="m 15.017,290.497 c 18.879,30.194 64.546,52.074 118.873,54.36 -44.065,-2.603 -81.246,-23.202 -97.888,-51.705 -8.563,3.295 -15.783,1.556 -20.985,-2.655"
           style="fill:#99cc66;fill-opacity:1;fill-rule:evenodd;stroke:none"
           id="path94951"
           inkscape:connector-curvature="0" /><path
           d="m 250.635,293.152 c -16.615,28.465 -53.647,49.047 -97.624,51.695 54.21,-2.345 99.76,-24.203 118.608,-54.35 -4.565,3.447 -11.627,4.927 -20.984,2.655"
           style="fill:#4f801e;fill-opacity:1;fill-rule:evenodd;stroke:none"
           id="path94953"
           inkscape:connector-curvature="0" /><path
           d="m 36.001,293.152 c 17.299,29.619 56.808,50.618 103.149,51.829 -26.067,-1.924 -48.292,-21.597 -58.804,-49.28 -19.647,6.044 -34.853,3.453 -44.345,-2.549"
           style="fill:#87b954;fill-opacity:1;fill-rule:evenodd;stroke:none"
           id="path94955"
           inkscape:connector-curvature="0" /><path
           d="m 141.146,166.485 h 4.435 v 150.218 h -4.435 z"
           style="fill:#cccccc;fill-opacity:1;fill-rule:evenodd;stroke:none"
           id="path94957"
           inkscape:connector-curvature="0" /><path
           d="m 206.291,295.701 c -10.505,27.69 -32.665,47.363 -58.732,49.282 46.365,-1.192 85.777,-22.198 103.076,-51.831 -11.904,7.538 -27.021,7.6 -44.344,2.549"
           style="fill:#629330;fill-opacity:1;fill-rule:evenodd;stroke:none"
           id="path94959"
           inkscape:connector-curvature="0" /><path
           d="m 141.922,166.485 h 1.89 v 150.218 h -1.89 z"
           style="fill:#e3e3e3;fill-opacity:1;fill-rule:evenodd;stroke:none"
           id="path94961"
           inkscape:connector-curvature="0" /><path
           d="m 80.346,295.701 c 11.074,29.164 35.147,49.436 63.017,49.436 27.871,0 51.865,-20.272 62.928,-49.436 -42.539,10.54 -84.836,10.355 -125.945,0"
           style="fill:#74a642;fill-opacity:1;fill-rule:evenodd;stroke:none"
           id="path94963"
           inkscape:connector-curvature="0" /><path
           d="m 104.529,148.97 c 0,5.001 7.604,5.001 7.604,0 0,-7.536 6.18,-13.715 13.715,-13.715 7.535,0 13.714,6.179 13.714,13.715 v 17.515 c 0,5.002 7.604,5.002 7.604,0 V 148.97 c 0,-11.733 -9.587,-21.318 -21.318,-21.318 -11.733,0 -21.319,9.585 -21.319,21.318"
           style="fill:#3e6913;fill-opacity:1;fill-rule:evenodd;stroke:none"
           id="path94965"
           inkscape:connector-curvature="0" /><path
           d="m 107.553,149.574 c 0,-10.645 8.229,-19.347 18.295,-19.347 10.065,0 18.296,8.702 18.296,19.347 v 17.515 c 0,0.649 -0.196,1.198 -0.748,1.523 -0.297,0.175 -0.646,0.256 -0.984,0.256 -1.044,0 -1.73,-0.642 -1.73,-1.779 v -17.515 c 0,-8.625 -6.678,-15.687 -14.834,-15.687 -8.156,0 -14.834,7.062 -14.834,15.687 0,0.649 -0.197,1.197 -0.749,1.523 -0.295,0.174 -0.645,0.256 -0.983,0.256 -1.044,0 -1.729,-0.645 -1.729,-1.779"
           style="fill:#74a642;fill-opacity:1;fill-rule:evenodd;stroke:none"
           id="path94967"
           inkscape:connector-curvature="0" /></g></g></g></svg>
