<svg width="30" height="30" viewBox="0 0 30 30" fill="none" xmlns="http://www.w3.org/2000/svg">
<g clip-path="url(#clip0_1006_73038)">
<path fill-rule="evenodd" clip-rule="evenodd" d="M21.431 10.1696L19.2262 13.5675C18.7307 14.3303 17.7843 14.6167 17.0882 14.209C16.3922 13.8013 16.2415 12.8596 16.7369 12.0968L19.6037 7.6785C18.763 6.71246 17.8462 5.80901 16.8615 4.976C17.1618 4.63149 17.3531 4.21249 17.4129 3.76803C17.4727 3.32358 17.3985 2.87207 17.1991 2.46637C16.9997 2.06066 16.6832 1.71755 16.2868 1.47719C15.8904 1.23684 15.4305 1.10919 14.9608 1.10919C14.4911 1.10919 14.0311 1.23684 13.6347 1.47719C13.2383 1.71755 12.9219 2.06066 12.7225 2.46637C12.5231 2.87207 12.4489 3.32358 12.5087 3.76803C12.5685 4.21249 12.7598 4.63149 13.0601 4.976C1.52494 14.8305 9.05557 24.3987 9.05557 24.3987H20.8647C20.8647 24.3987 26.0699 17.7982 21.431 10.1696Z" fill="#131314"/>
<path d="M20.8687 24.7151H9.05959C9.00875 24.7149 8.95865 24.7035 8.91318 24.6818C8.8677 24.6601 8.82809 24.6287 8.79743 24.59C8.71878 24.49 6.85611 22.0889 6.40912 18.4222C5.679 12.4344 9.33093 7.81356 12.6237 4.93849C12.3457 4.53575 12.1872 4.06875 12.165 3.58702C12.1428 3.10529 12.2576 2.6268 12.4974 2.20231C12.7371 1.77783 13.0929 1.42317 13.5268 1.17597C13.9608 0.928771 14.4568 0.798248 14.9622 0.798248C15.4676 0.798248 15.9636 0.928771 16.3976 1.17597C16.8315 1.42317 17.1872 1.77783 17.427 2.20231C17.6668 2.6268 17.7816 3.10529 17.7594 3.58702C17.7371 4.06875 17.5786 4.53575 17.3007 4.93849C18.2149 5.72832 19.0691 6.57919 19.8568 7.48466C19.9002 7.53524 19.926 7.59743 19.9307 7.66263C19.9354 7.72783 19.9187 7.79281 19.883 7.84857L17.0136 12.2619C16.8195 12.5511 16.7405 12.8972 16.7908 13.2373C16.8104 13.3803 16.8624 13.5174 16.9432 13.6392C17.024 13.761 17.1317 13.8646 17.2587 13.9426C17.7922 14.2578 18.5486 14.0152 18.9458 13.4036L21.1519 10.0046C21.1812 9.95949 21.2222 9.92228 21.2708 9.89646C21.3194 9.87065 21.3741 9.85707 21.4298 9.857C21.4863 9.85773 21.5417 9.87254 21.5905 9.89995C21.6392 9.92737 21.6796 9.96645 21.7076 10.0133C24.1602 14.0464 23.8731 17.7932 23.1994 20.2268C22.4718 22.8605 21.1794 24.5212 21.1243 24.59C21.0945 24.6281 21.056 24.6592 21.0117 24.6808C20.9674 24.7025 20.9185 24.7142 20.8687 24.7151ZM9.23 24.0898H20.6983C21.5531 22.8481 22.1885 21.4809 22.5793 20.0429C23.4576 16.8452 23.0656 13.7325 21.4166 10.7887L19.5042 13.7325C18.9169 14.6379 17.7555 14.9706 16.9153 14.4741C16.7074 14.3495 16.5306 14.1829 16.3975 13.9861C16.2643 13.7892 16.178 13.5669 16.1445 13.3348C16.0697 12.8468 16.1808 12.3494 16.4578 11.933L19.2014 7.70726C18.4112 6.81716 17.5562 5.98136 16.6427 5.20611C16.5794 5.15221 16.5405 5.07701 16.5341 4.99632C16.5278 4.91562 16.5545 4.83572 16.6086 4.77341C16.8698 4.47476 17.0365 4.11125 17.0889 3.72548C17.1413 3.33971 17.0774 2.94767 16.9046 2.59533C16.7318 2.243 16.4573 1.94496 16.1132 1.73617C15.7692 1.52737 15.3699 1.41647 14.9622 1.41647C14.5545 1.41647 14.1552 1.52737 13.8111 1.73617C13.4671 1.94496 13.1926 2.243 13.0198 2.59533C12.847 2.94767 12.7831 3.33971 12.8355 3.72548C12.8879 4.11125 13.0545 4.47476 13.3158 4.77341C13.3701 4.83557 13.397 4.91537 13.3909 4.99606C13.3848 5.07676 13.3461 5.15204 13.283 5.20611C10.6889 7.42088 8.87084 9.79947 7.87593 12.2781C7.09041 14.2068 6.81009 16.2892 7.05929 18.3447C7.3109 20.3933 8.05367 22.3592 9.23 24.0898Z" fill="#9698A2"/>
<path fill-rule="evenodd" clip-rule="evenodd" d="M4.95392 27.225C4.91236 27.7635 4.9185 28.3044 4.97227 28.842H25.0277C25.0811 28.3044 25.0868 27.7635 25.0448 27.225C24.9725 26.4484 24.5969 25.726 23.9926 25.2012C23.3883 24.6763 22.5994 24.3872 21.7822 24.3912H8.21785C7.40041 24.3869 6.61112 24.6758 6.00654 25.2007C5.40196 25.7256 5.02625 26.4482 4.95392 27.225Z" fill="#131314"/>
<path d="M25.0266 29.1546H4.97113C4.88913 29.1549 4.81002 29.1257 4.74955 29.0729C4.68907 29.0201 4.65165 28.9475 4.64474 28.8695C4.59027 28.3144 4.58457 27.756 4.6277 27.2C4.70799 26.3452 5.121 25.55 5.78533 24.9713C6.44966 24.3926 7.31711 24.0723 8.21671 24.0736H21.781C22.6807 24.0726 23.5481 24.3929 24.2126 24.9716C24.8771 25.5502 25.2904 26.3452 25.3713 27.2C25.414 27.756 25.4079 28.3145 25.353 28.8695C25.3461 28.9475 25.3087 29.0201 25.2482 29.0729C25.1877 29.1257 25.1086 29.1549 25.0266 29.1546ZM5.27655 28.5294H24.7225C24.7547 28.1035 24.7547 27.6759 24.7225 27.25C24.6547 26.5525 24.3158 25.9043 23.7724 25.4331C23.2291 24.9619 22.5206 24.7018 21.7863 24.7038H8.21802C7.48381 24.7021 6.77546 24.9623 6.23215 25.4335C5.68883 25.9046 5.34985 26.5526 5.28179 27.25C5.24778 27.6758 5.24602 28.1033 5.27655 28.5294Z" fill="#9698A2"/>
<path d="M23.6622 29.5923H6.33845C6.25153 29.5923 6.16818 29.5594 6.10673 29.5008C6.04527 29.4421 6.01074 29.3626 6.01074 29.2797C6.01074 29.1968 6.04527 29.1173 6.10673 29.0586C6.16818 29 6.25153 28.9671 6.33845 28.9671H23.6622C23.7491 28.9671 23.8324 29 23.8939 29.0586C23.9553 29.1173 23.9899 29.1968 23.9899 29.2797C23.9899 29.3626 23.9553 29.4421 23.8939 29.5008C23.8324 29.5594 23.7491 29.5923 23.6622 29.5923Z" fill="#9698A2"/>
</g>
<defs>
<clipPath id="clip0_1006_73038">
<rect width="20.8" height="28.792" fill="white" transform="translate(4.6001 0.797836)"/>
</clipPath>
</defs>
</svg>
