<svg width="30" height="30" viewBox="0 0 30 30" fill="none" xmlns="http://www.w3.org/2000/svg">
<g clip-path="url(#clip0_1006_73026)">
<path fill-rule="evenodd" clip-rule="evenodd" d="M9.83198 26.3195C9.83198 26.3195 5.3311 16.4778 6.00415 14.5633C6.6772 12.6489 10.9197 11.2427 14.8269 11.2427C18.7342 11.2427 22.9805 12.6452 23.6497 14.5633C24.319 16.4815 19.8244 26.3195 19.8244 26.3195H9.83198Z" fill="#131314"/>
<path d="M19.8344 26.6287H9.83186C9.77121 26.6288 9.71183 26.6116 9.66086 26.5794C9.60988 26.5471 9.56947 26.5011 9.54449 26.4469C9.07814 25.4279 5.00705 16.4357 5.70657 14.4631C6.47416 12.2828 11.0406 10.9335 14.8319 10.9335C18.6231 10.9335 23.1921 12.2828 23.9571 14.4631C24.6516 16.4419 20.5868 25.4279 20.1218 26.4469C20.0965 26.501 20.056 26.5468 20.0051 26.579C19.9542 26.6112 19.895 26.6285 19.8344 26.6287ZM10.036 26.0104H19.6302C21.4111 22.0912 23.8185 15.967 23.361 14.6647C22.7787 13.0063 18.7933 11.5519 14.8319 11.5519C10.8704 11.5519 6.89135 13.0063 6.30148 14.6647C6.15906 15.0753 6.18426 16.4419 7.95891 21.0474C8.82354 23.2908 9.75749 25.392 10.036 26.0104Z" fill="#9698A2"/>
<path d="M13.3432 9.36539V6.87341H10.4834V4.07843H13.3432V1.30695H16.3203V4.07843H19.1801V6.87341H16.3203V9.36539" fill="#131314"/>
<path d="M16.6356 9.3654H16.0054V6.87342C16.0052 6.83277 16.0132 6.79249 16.029 6.7549C16.0448 6.71732 16.068 6.68317 16.0973 6.65443C16.1266 6.62569 16.1614 6.60292 16.1997 6.58744C16.238 6.57196 16.279 6.56407 16.3205 6.56424H18.8652V4.38762H16.3205C16.2369 4.38762 16.1567 4.35504 16.0977 4.29706C16.0386 4.23908 16.0054 4.16044 16.0054 4.07844V1.61613H13.6585V4.07844C13.6587 4.11908 13.6506 4.15936 13.6349 4.19695C13.6191 4.23453 13.5959 4.26868 13.5666 4.29742C13.5373 4.32617 13.5025 4.34893 13.4642 4.36441C13.4259 4.37989 13.3848 4.38778 13.3434 4.38762H10.7987V6.56424H13.3434C13.3848 6.56407 13.4259 6.57196 13.4642 6.58744C13.5025 6.60292 13.5373 6.62569 13.5666 6.65443C13.5959 6.68317 13.6191 6.71732 13.6349 6.7549C13.6506 6.79249 13.6587 6.83277 13.6585 6.87342V9.3654H13.0283V7.1826H10.4836C10.4 7.1826 10.3198 7.15002 10.2607 7.09204C10.2017 7.03406 10.1685 6.95542 10.1685 6.87342V4.07844C10.1683 4.03779 10.1763 3.99751 10.1921 3.95993C10.2079 3.92234 10.2311 3.88819 10.2604 3.85945C10.2897 3.83071 10.3245 3.80794 10.3628 3.79246C10.4011 3.77698 10.4421 3.76909 10.4836 3.76926H13.0283V1.30695C13.0283 1.22495 13.0615 1.14631 13.1206 1.08833C13.1797 1.03035 13.2598 0.997775 13.3434 0.997775H16.3205C16.3619 0.997611 16.4029 1.0055 16.4412 1.02098C16.4795 1.03646 16.5143 1.05922 16.5436 1.08797C16.5729 1.11671 16.5961 1.15086 16.6119 1.18844C16.6277 1.22603 16.6357 1.26631 16.6356 1.30695V3.76926H19.1803C19.2217 3.76909 19.2628 3.77698 19.3011 3.79246C19.3394 3.80794 19.3742 3.83071 19.4035 3.85945C19.4328 3.88819 19.456 3.92234 19.4718 3.95993C19.4875 3.99751 19.4956 4.03779 19.4954 4.07844V6.87342C19.4954 6.95542 19.4622 7.03406 19.4031 7.09204C19.344 7.15002 19.2639 7.1826 19.1803 7.1826H16.6356V9.3654Z" fill="#9698A2"/>
<path fill-rule="evenodd" clip-rule="evenodd" d="M17.0942 9.3654H12.5417C12.4133 9.36649 12.2866 9.39402 12.1698 9.44622C12.053 9.49841 11.9487 9.57411 11.8636 9.6684C11.6825 9.86992 11.5825 10.1294 11.5825 10.3981C11.5825 10.6668 11.6825 10.9262 11.8636 11.1277C11.9489 11.2216 12.0534 11.2969 12.1701 11.3489C12.2869 11.4009 12.4135 11.4283 12.5417 11.4295H17.0942C17.2225 11.4283 17.349 11.4009 17.4658 11.3489C17.5826 11.2969 17.687 11.2216 17.7723 11.1277C17.9535 10.9262 18.0534 10.6668 18.0534 10.3981C18.0534 10.1294 17.9535 9.86992 17.7723 9.6684C17.6872 9.57411 17.5829 9.49841 17.4661 9.44622C17.3493 9.39402 17.2226 9.36649 17.0942 9.3654Z" fill="#131314"/>
<path d="M17.0942 11.7362H12.5416C12.3696 11.7345 12.1997 11.6979 12.0429 11.6285C11.886 11.5591 11.7455 11.4585 11.6304 11.333C11.3961 11.0746 11.2666 10.7408 11.2666 10.395C11.2666 10.0491 11.3961 9.71529 11.6304 9.45691C11.7452 9.33138 11.8854 9.23071 12.0421 9.16129C12.1988 9.09188 12.3685 9.05525 12.5404 9.05374H17.0929C17.265 9.05538 17.4348 9.09206 17.5917 9.16146C17.7486 9.23086 17.889 9.33147 18.0042 9.45691C18.2385 9.71529 18.368 10.0491 18.368 10.395C18.368 10.7408 18.2385 11.0746 18.0042 11.333C17.8894 11.4585 17.7492 11.5592 17.5925 11.6286C17.4358 11.698 17.2661 11.7347 17.0942 11.7362ZM12.5416 9.6721C12.4572 9.67316 12.374 9.69166 12.2973 9.72639C12.2206 9.76112 12.1523 9.81131 12.0967 9.87368C11.9683 10.0181 11.8975 10.2033 11.8975 10.395C11.8975 10.5866 11.9683 10.7718 12.0967 10.9162C12.1523 10.9786 12.2206 11.0288 12.2973 11.0635C12.374 11.0983 12.4572 11.1168 12.5416 11.1178H17.0942C17.1786 11.1168 17.2619 11.0983 17.3385 11.0635C17.4152 11.0288 17.4835 10.9786 17.5391 10.9162C17.6676 10.7718 17.7384 10.5866 17.7384 10.395C17.7384 10.2033 17.6676 10.0181 17.5391 9.87368C17.4835 9.81131 17.4152 9.76112 17.3385 9.72639C17.2619 9.69166 17.1786 9.67316 17.0942 9.6721H12.5416Z" fill="#9698A2"/>
<path fill-rule="evenodd" clip-rule="evenodd" d="M5.14195 27.4425C5.10283 27.975 5.10831 28.5099 5.15833 29.0416H24.4424C24.4929 28.5099 24.4988 27.9751 24.4601 27.4425C24.3906 26.6744 24.0295 25.9599 23.4485 25.4406C22.8675 24.9214 22.1088 24.6352 21.3229 24.6388H8.27908C7.49326 24.6355 6.7348 24.9217 6.15383 25.441C5.57286 25.9602 5.21174 26.6745 5.14195 27.4425Z" fill="#131314"/>
<path d="M24.4421 29.3507H5.15802C5.07934 29.3504 5.0036 29.3214 4.94557 29.2693C4.88754 29.2171 4.85139 29.1456 4.84418 29.0688C4.79243 28.5198 4.78695 27.9676 4.8278 27.4178C4.90556 26.5726 5.30286 25.7866 5.94151 25.2144C6.58017 24.6422 7.41394 24.3253 8.27877 24.326H21.3214C22.1863 24.325 23.0202 24.6419 23.6589 25.2141C24.2976 25.7863 24.6948 26.5725 24.7723 27.4178C24.8138 27.9676 24.8083 28.5198 24.7559 29.0688C24.7487 29.1456 24.7126 29.2171 24.6546 29.2693C24.5965 29.3214 24.5208 29.3504 24.4421 29.3507ZM5.45044 28.7324H24.1497C24.1795 28.3112 24.1795 27.8884 24.1497 27.4672C24.0843 26.7774 23.7584 26.1365 23.236 25.6703C22.7136 25.2042 22.0325 24.9466 21.3264 24.948H8.27877C7.57269 24.9466 6.89157 25.2042 6.36918 25.6703C5.8468 26.1365 5.52089 26.7774 5.45548 27.4672C5.42403 27.8883 5.42234 28.311 5.45044 28.7324Z" fill="#9698A2"/>
<path d="M23.1605 29.7922H6.50309C6.41952 29.7922 6.33937 29.7597 6.28028 29.7017C6.22119 29.6437 6.18799 29.5651 6.18799 29.4831C6.18799 29.4011 6.22119 29.3224 6.28028 29.2644C6.33937 29.2065 6.41952 29.1739 6.50309 29.1739H23.1605C23.2441 29.1739 23.3242 29.2065 23.3833 29.2644C23.4424 29.3224 23.4756 29.4011 23.4756 29.4831C23.4756 29.5651 23.4424 29.6437 23.3833 29.7017C23.3242 29.7597 23.2441 29.7922 23.1605 29.7922Z" fill="#9698A2"/>
</g>
<defs>
<clipPath id="clip0_1006_73026">
<rect width="20" height="28.792" fill="white" transform="translate(4.80029 0.997772)"/>
</clipPath>
</defs>
</svg>
