<svg width="30" height="30" viewBox="0 0 30 30" fill="none" xmlns="http://www.w3.org/2000/svg">
<g clip-path="url(#clip0_1006_73046)">
<path fill-rule="evenodd" clip-rule="evenodd" d="M16.913 13.5231C16.7938 18.5657 8.52664 17.2992 8.69887 26.6243L25.0027 26.7106C23.5096 22.0481 31.9141 8.50111 16.4934 3.36446C16.4934 3.36446 14.7542 1.48219 12.2394 1.31985L12.3974 3.87851C10.8511 5.45674 2.60856 12.8673 3.61347 14.1505C5.25162 16.9849 6.93251 17.3817 7.69267 17.3959C7.8156 17.3981 7.93728 17.371 8.04748 17.3167C8.15767 17.2625 8.25316 17.1827 8.32592 17.0841C11.0454 13.5205 13.6626 16.3909 16.9052 13.5231H16.913Z" fill="#131314"/>
<path d="M25.0026 27.0327L8.69869 26.9464C8.61406 26.9464 8.53282 26.9133 8.47249 26.8543C8.41217 26.7952 8.3776 26.7149 8.37624 26.6307C8.27264 21.0496 11.1695 19.0952 13.4966 17.5247C14.9677 16.5314 16.1733 15.721 16.5023 14.2562C15.1296 15.2095 13.8476 15.2868 12.6976 15.35C11.22 15.435 9.94317 15.5084 8.58991 17.2825C8.48781 17.4199 8.35475 17.5315 8.20141 17.6084C8.04466 17.6859 7.87135 17.7244 7.69637 17.7205C6.79376 17.7012 5.03776 17.2374 3.35428 14.3322C2.74434 13.5051 3.80364 11.6756 10.8561 4.92723C11.3741 4.43122 11.7989 4.02539 12.0721 3.75355L11.9232 1.33789C11.9203 1.29234 11.9272 1.24669 11.9435 1.20402C11.9598 1.16135 11.9851 1.12265 12.0177 1.09053C12.0499 1.05804 12.0888 1.03292 12.1318 1.0169C12.1747 1.00088 12.2206 0.994355 12.2664 0.997768C14.6491 1.15108 16.3404 2.7409 16.6784 3.08232C21.712 4.77649 24.6982 7.49491 25.8054 11.387C26.7521 14.72 26.1305 18.3815 25.6306 21.3228C25.2564 23.5129 24.9352 25.4158 25.3172 26.605C25.333 26.6533 25.3371 26.7046 25.329 26.7547C25.321 26.8048 25.3011 26.8523 25.271 26.8933C25.2409 26.9343 25.2015 26.9677 25.156 26.9905C25.1104 27.0134 25.0601 27.0252 25.009 27.025L25.0026 27.0327ZM9.01984 26.3048L24.5869 26.3872C24.3279 25.0667 24.6374 23.2682 24.9857 21.2171C25.5037 18.1882 26.0839 14.756 25.1761 11.5648C24.1259 7.87111 21.2523 5.28926 16.3909 3.6698C16.3414 3.65109 16.2971 3.62108 16.2614 3.58219C16.2459 3.56545 14.7476 1.97562 12.5927 1.67802L12.7222 3.85919C12.7249 3.90412 12.7181 3.94911 12.7023 3.99128C12.6865 4.03344 12.6619 4.07183 12.6303 4.10398C12.3596 4.38097 11.8921 4.82803 11.3003 5.39232C9.91986 6.71159 7.83493 8.70596 6.22397 10.4774C3.5304 13.4406 3.85933 13.9302 3.87487 13.956C3.88423 13.9679 3.89288 13.9804 3.90077 13.9933C5.49101 16.7427 7.09032 17.066 7.70543 17.0776C7.77638 17.0801 7.84679 17.0646 7.91004 17.0326C7.97391 17.0007 8.02936 16.9544 8.07191 16.8973C9.60777 14.8875 11.1592 14.7973 12.66 14.7071C13.9369 14.6324 15.2565 14.5563 16.6965 13.2822C16.76 13.2293 16.8408 13.2016 16.9235 13.2045C17.0062 13.2073 17.085 13.2405 17.1446 13.2976C17.1748 13.3284 17.1987 13.3649 17.2147 13.4049C17.2307 13.445 17.2385 13.4877 17.2378 13.5308C17.1834 15.8151 15.5686 16.905 13.8592 18.0581C11.593 19.5873 9.0315 21.315 9.01984 26.3048Z" fill="#9698A2"/>
<path fill-rule="evenodd" clip-rule="evenodd" d="M7.00242 27.3535C6.96203 27.9083 6.96809 28.4655 7.02055 29.0193H26.8338C26.8859 28.4655 26.8915 27.9083 26.8507 27.3535C26.7792 26.5534 26.4082 25.8093 25.8112 25.2685C25.2142 24.7278 24.4348 24.43 23.6275 24.4341H10.2256C9.41838 24.4303 8.63911 24.7282 8.04217 25.2689C7.44523 25.8096 7.07415 26.5535 7.00242 27.3535Z" fill="#131314"/>
<path d="M26.8324 29.3414H7.01909C6.93808 29.3417 6.85993 29.3116 6.80019 29.2572C6.74044 29.2028 6.70347 29.128 6.69664 29.0477C6.64244 28.4759 6.63637 27.9005 6.67851 27.3277C6.75814 26.447 7.16644 25.6278 7.82295 25.0317C8.47947 24.4355 9.33661 24.1056 10.2255 24.1069H23.626C24.5147 24.1056 25.3717 24.4356 26.028 25.0317C26.6843 25.6279 27.0923 26.4471 27.1717 27.3277C27.2142 27.9005 27.2086 28.4758 27.1548 29.0477C27.1474 29.1278 27.1103 29.2022 27.0507 29.2565C26.991 29.3109 26.9132 29.3411 26.8324 29.3414ZM7.31953 28.6972H26.5345C26.5658 28.2585 26.5658 27.818 26.5345 27.3793C26.4673 26.6607 26.1324 25.9932 25.5957 25.5079C25.0589 25.0225 24.3591 24.7544 23.6338 24.7562H10.2268C9.50127 24.7538 8.80114 25.0217 8.26426 25.5072C7.72738 25.9927 7.39266 26.6605 7.326 27.3793C7.29258 27.8179 7.29042 28.2583 7.31953 28.6972Z" fill="#9698A2"/>
<path fill-rule="evenodd" clip-rule="evenodd" d="M12.2896 8.67374C12.5913 8.72785 13.6467 8.87859 13.942 8.55264C14.627 7.80153 12.735 7.22822 12.2896 8.67374Z" fill="#9698A2"/>
<path fill-rule="evenodd" clip-rule="evenodd" d="M5.22443 13.0722C5.44623 12.7884 5.73797 12.5665 6.07135 12.428C6.10477 12.4133 6.14115 12.4065 6.17765 12.4081C6.21415 12.4098 6.24977 12.4198 6.28175 12.4373C6.31372 12.4549 6.34117 12.4796 6.36196 12.5095C6.38274 12.5394 6.3963 12.5737 6.40157 12.6096C6.41047 12.6681 6.39967 12.7279 6.37086 12.7796C6.34205 12.8314 6.29684 12.8722 6.24229 12.8957C6.05921 12.9639 5.89718 13.0785 5.77221 13.2281L5.75278 13.2577C5.66343 13.4046 5.58444 13.5914 5.42515 13.6532C5.22314 13.7318 4.9991 13.603 5.05997 13.3955C5.09642 13.2794 5.152 13.1702 5.22443 13.0722Z" fill="#9698A2"/>
<path fill-rule="evenodd" clip-rule="evenodd" d="M16.9258 13.4986C17.278 13.1121 17.4075 12.9833 17.537 12.5968L16.9258 13.4986Z" fill="#131314"/>
<path d="M16.9256 13.8168C16.8629 13.8168 16.8016 13.7987 16.7491 13.7646C16.6966 13.7306 16.6551 13.6821 16.6298 13.6251C16.6044 13.5681 16.5962 13.505 16.6062 13.4434C16.6162 13.3818 16.6439 13.3245 16.686 13.2783L16.7391 13.219C17.0383 12.8905 17.1276 12.7913 17.2299 12.4898C17.2421 12.4482 17.2626 12.4095 17.2902 12.376C17.3178 12.3425 17.3519 12.3148 17.3905 12.2947C17.4291 12.2746 17.4713 12.2625 17.5147 12.259C17.5581 12.2555 17.6018 12.2608 17.6431 12.2745C17.6844 12.2882 17.7225 12.31 17.7552 12.3387C17.7878 12.3674 17.8143 12.4024 17.833 12.4415C17.8517 12.4806 17.8623 12.5231 17.8642 12.5663C17.866 12.6096 17.8591 12.6528 17.8438 12.6934C17.7 13.1237 17.5394 13.3002 17.2196 13.6519L17.1665 13.7099C17.1361 13.7435 17.0989 13.7704 17.0574 13.7888C17.016 13.8072 16.9711 13.8168 16.9256 13.8168Z" fill="#9698A2"/>
<path d="M25.4832 29.7924H8.36867C8.28281 29.7924 8.20046 29.7584 8.13974 29.698C8.07903 29.6376 8.04492 29.5557 8.04492 29.4703C8.04492 29.3848 8.07903 29.3029 8.13974 29.2425C8.20046 29.1821 8.28281 29.1482 8.36867 29.1482H25.4832C25.5691 29.1482 25.6514 29.1821 25.7121 29.2425C25.7728 29.3029 25.8069 29.3848 25.8069 29.4703C25.8069 29.5557 25.7728 29.6376 25.7121 29.698C25.6514 29.7584 25.5691 29.7924 25.4832 29.7924Z" fill="#9698A2"/>
</g>
<defs>
<clipPath id="clip0_1006_73046">
<rect width="24" height="28.792" fill="white" transform="translate(3.2002 0.997772)"/>
</clipPath>
</defs>
</svg>
