<svg width="30" height="30" viewBox="0 0 30 30" fill="none" xmlns="http://www.w3.org/2000/svg">
<g clip-path="url(#clip0_1006_72910)">
<path d="M14.842 12.6194C17.5469 12.6194 19.7396 10.4744 19.7396 7.82849C19.7396 5.18256 17.5469 3.03761 14.842 3.03761C12.1371 3.03761 9.94434 5.18256 9.94434 7.82849C9.94434 10.4744 12.1371 12.6194 14.842 12.6194Z" fill="#131314"/>
<path d="M14.8417 12.9716C13.8019 12.9716 12.7853 12.67 11.9207 12.1049C11.0561 11.5397 10.3822 10.7365 9.98421 9.79669C9.58626 8.85691 9.48214 7.82279 9.68501 6.82512C9.88788 5.82745 10.3886 4.91102 11.1239 4.19174C11.8593 3.47246 12.7961 2.98262 13.816 2.78418C14.8359 2.58573 15.8931 2.68758 16.8538 3.07685C17.8145 3.46612 18.6357 4.12533 19.2134 4.97112C19.7911 5.8169 20.0995 6.81128 20.0995 7.8285C20.098 9.19208 19.5435 10.4994 18.5578 11.4636C17.5722 12.4278 16.2357 12.9701 14.8417 12.9716ZM14.8417 3.38989C13.9443 3.38989 13.067 3.65021 12.3208 4.13793C11.5746 4.62565 10.9931 5.31887 10.6496 6.12992C10.3062 6.94096 10.2163 7.83342 10.3914 8.69442C10.5665 9.55543 10.9987 10.3463 11.6332 10.9671C12.2678 11.5878 13.0763 12.0105 13.9565 12.1818C14.8367 12.3531 15.749 12.2652 16.5782 11.9292C17.4073 11.5933 18.116 11.0244 18.6145 10.2945C19.1131 9.56453 19.3792 8.70637 19.3792 7.8285C19.3781 6.65165 18.8997 5.52332 18.049 4.69116C17.1983 3.85901 16.0448 3.39101 14.8417 3.38989Z" fill="#9698A2"/>
<path fill-rule="evenodd" clip-rule="evenodd" d="M21.5489 23.6257C18.9791 22.3928 17.5991 17.4892 17.2894 14.1454H12.4652C12.157 17.4892 10.7756 22.3928 8.20719 23.6257C5.27581 25.0348 4.43457 24.8615 4.43457 29.0352H25.3215C25.3201 24.8615 24.4803 25.032 21.5489 23.6257Z" fill="#131314"/>
<path d="M25.32 29.3874H4.4402C4.34469 29.3874 4.25309 29.3503 4.18555 29.2843C4.11802 29.2182 4.08008 29.1286 4.08008 29.0352C4.08008 25.2912 4.75998 24.815 7.11661 23.7441C7.3975 23.6158 7.71441 23.4721 8.05436 23.3087C9.12176 22.7972 10.0898 21.4966 10.8532 19.5506C11.5167 17.801 11.94 15.973 12.1122 14.1144C12.1204 14.0268 12.1617 13.9454 12.2281 13.886C12.2944 13.8266 12.381 13.7935 12.4709 13.7931H17.2893C17.3794 13.7928 17.4663 13.8257 17.5328 13.8852C17.5992 13.9448 17.6404 14.0266 17.648 14.1144C17.8213 15.9729 18.2451 17.8008 18.9084 19.5506C19.6704 21.4966 20.637 22.7915 21.7072 23.3087C22.0457 23.4721 22.3641 23.6158 22.645 23.7441C25.0002 24.815 25.6801 25.2941 25.6801 29.0352C25.6801 29.1286 25.6421 29.2182 25.5746 29.2843C25.5071 29.3503 25.4155 29.3874 25.32 29.3874ZM4.8032 28.6829H24.9584C24.9224 25.5561 24.3822 25.311 22.341 24.3824C22.0529 24.2542 21.736 24.1076 21.3903 23.9413C18.5569 22.583 17.2835 17.3497 16.9637 14.5005H12.7964C12.4781 17.3525 11.2047 22.5858 8.37127 23.9413C8.02555 24.1076 7.70433 24.2542 7.42055 24.3824C5.37795 25.311 4.83777 25.5561 4.8032 28.6829Z" fill="#9698A2"/>
<path fill-rule="evenodd" clip-rule="evenodd" d="M17.4433 12.3376H12.2402C12.0937 12.3389 11.9491 12.3701 11.8156 12.4294C11.6822 12.4886 11.5628 12.5744 11.4653 12.6814C11.2583 12.911 11.144 13.2066 11.144 13.5127C11.144 13.8189 11.2583 14.1145 11.4653 14.3441C11.5626 14.4513 11.6819 14.5374 11.8154 14.5966C11.9489 14.6558 12.0937 14.6869 12.2402 14.6879H17.4433C17.5899 14.6869 17.7346 14.6558 17.8681 14.5966C18.0016 14.5374 18.1209 14.4513 18.2182 14.3441C18.4252 14.1145 18.5395 13.8189 18.5395 13.5127C18.5395 13.2066 18.4252 12.911 18.2182 12.6814C18.1207 12.5744 18.0013 12.4886 17.8679 12.4294C17.7344 12.3701 17.5898 12.3389 17.4433 12.3376Z" fill="#131314"/>
<path d="M17.4434 15.0402H12.2404C12.0439 15.0386 11.8498 14.997 11.6705 14.9182C11.4912 14.8394 11.3307 14.725 11.199 14.5822C10.9317 14.2876 10.7842 13.9073 10.7842 13.5134C10.7842 13.1195 10.9317 12.7393 11.199 12.4447C11.3306 12.3017 11.4911 12.1871 11.6704 12.108C11.8497 12.029 12.0438 11.9872 12.2404 11.9853H17.4434C17.6401 11.9872 17.8342 12.029 18.0135 12.108C18.1927 12.1871 18.3533 12.3017 18.4849 12.4447C18.7521 12.7393 18.8997 13.1195 18.8997 13.5134C18.8997 13.9073 18.7521 14.2876 18.4849 14.5822C18.3532 14.725 18.1926 14.8394 18.0133 14.9182C17.8341 14.997 17.64 15.0386 17.4434 15.0402ZM12.2404 12.6898C12.1439 12.691 12.0488 12.7121 11.9612 12.7517C11.8736 12.7913 11.7954 12.8484 11.7319 12.9195C11.5851 13.084 11.5042 13.295 11.5042 13.5134C11.5042 13.7318 11.5851 13.9428 11.7319 14.1074C11.7955 14.1782 11.8737 14.2352 11.9613 14.2745C12.0489 14.3139 12.144 14.3347 12.2404 14.3356H17.4434C17.5398 14.3347 17.6349 14.3139 17.7226 14.2745C17.8102 14.2352 17.8883 14.1782 17.9519 14.1074C18.0987 13.9428 18.1796 13.7318 18.1796 13.5134C18.1796 13.295 18.0987 13.084 17.9519 12.9195C17.8884 12.8484 17.8103 12.7913 17.7227 12.7517C17.6351 12.7121 17.5399 12.691 17.4434 12.6898H12.2404Z" fill="#9698A2"/>
<path d="M24.0222 29.8806H5.66188C5.56637 29.8806 5.47477 29.8435 5.40724 29.7774C5.3397 29.7114 5.30176 29.6218 5.30176 29.5283C5.30176 29.4349 5.3397 29.3453 5.40724 29.2792C5.47477 29.2132 5.56637 29.1761 5.66188 29.1761H24.0222C24.1177 29.1761 24.2093 29.2132 24.2769 29.2792C24.3444 29.3453 24.3824 29.4349 24.3824 29.5283C24.3824 29.6218 24.3444 29.7114 24.2769 29.7774C24.2093 29.8435 24.1177 29.8806 24.0222 29.8806Z" fill="#9698A2"/>
</g>
<defs>
<clipPath id="clip0_1006_72910">
<rect width="21.6" height="27.1924" fill="white" transform="translate(4.08008 2.68535)"/>
</clipPath>
</defs>
</svg>
