<svg width="31" height="30" viewBox="0 0 31 30" fill="none" xmlns="http://www.w3.org/2000/svg">
<path fill-rule="evenodd" clip-rule="evenodd" d="M15.5989 1.31265C15.1339 1.3129 14.6795 1.45187 14.293 1.712C13.9065 1.97213 13.6054 2.34173 13.4276 2.77408C13.2499 3.20643 13.2035 3.68211 13.2944 4.14099C13.3852 4.59986 13.6092 5.02132 13.9381 5.35208C14.267 5.68285 14.6859 5.90806 15.1419 5.99925C15.598 6.09044 16.0706 6.04351 16.5002 5.8644C16.9297 5.68529 17.2968 5.38203 17.5551 4.99298C17.8134 4.60392 17.9513 4.14653 17.9513 3.67864C17.9513 3.36783 17.8904 3.06006 17.7722 2.77292C17.6539 2.48579 17.4807 2.22491 17.2622 2.00519C17.0437 1.78547 16.7844 1.61122 16.499 1.49239C16.2136 1.37356 15.9078 1.31249 15.5989 1.31265Z" fill="#131314"/>
<path d="M15.5992 6.35699C15.0727 6.356 14.5583 6.19796 14.1211 5.90287C13.6838 5.60777 13.3433 5.18885 13.1426 4.69906C12.9418 4.20926 12.8899 3.67058 12.9933 3.15108C13.0967 2.63159 13.3508 2.1546 13.7235 1.7804C14.0962 1.4062 14.5708 1.15159 15.0873 1.04874C15.6038 0.945898 16.1389 0.999434 16.6252 1.20259C17.1114 1.40574 17.5269 1.74939 17.8191 2.1901C18.1114 2.63082 18.2672 3.14882 18.267 3.67863C18.266 4.38976 17.9844 5.07138 17.4841 5.57363C16.9838 6.07588 16.3059 6.35765 15.5992 6.35699ZM15.5992 1.62627C15.196 1.62726 14.8022 1.74848 14.4675 1.97459C14.1328 2.20071 13.8721 2.52159 13.7185 2.8967C13.5649 3.27181 13.5253 3.68431 13.6045 4.0821C13.6838 4.47988 13.8784 4.84511 14.1638 5.13164C14.4492 5.41816 14.8127 5.61313 15.2081 5.69192C15.6036 5.7707 16.0134 5.72977 16.3858 5.57428C16.7582 5.4188 17.0764 5.15574 17.3003 4.81834C17.5242 4.48094 17.6436 4.08434 17.6436 3.67863C17.6433 3.40878 17.5902 3.14164 17.4873 2.89246C17.3843 2.64328 17.2337 2.41693 17.0438 2.22636C16.854 2.03578 16.6287 1.88469 16.3808 1.78173C16.1329 1.67877 15.8674 1.62594 15.5992 1.62627Z" fill="#9698A2"/>
<path fill-rule="evenodd" clip-rule="evenodd" d="M23.8269 3.67864C23.4392 3.67864 23.0603 3.79433 22.738 4.01108C22.4157 4.22783 22.1645 4.5359 22.0162 4.89632C21.868 5.25674 21.8292 5.65332 21.9049 6.0359C21.9807 6.41848 22.1674 6.76987 22.4416 7.04562C22.7158 7.32137 23.0651 7.50909 23.4453 7.58504C23.8255 7.66099 24.2196 7.62176 24.5777 7.47231C24.9357 7.32285 25.2417 7.06989 25.4569 6.74542C25.6721 6.42095 25.7868 6.03955 25.7866 5.64945C25.7867 5.39049 25.7361 5.13404 25.6377 4.89477C25.5393 4.6555 25.3949 4.43812 25.2129 4.25506C25.0308 4.07201 24.8147 3.92687 24.5769 3.82796C24.3391 3.72905 24.0842 3.67831 23.8269 3.67864Z" fill="#131314"/>
<path d="M23.827 7.93515C23.3778 7.93515 22.9386 7.80109 22.5651 7.54994C22.1916 7.29878 21.9005 6.94181 21.7286 6.52415C21.5566 6.10649 21.5117 5.64692 21.5993 5.20353C21.6869 4.76015 21.9033 4.35288 22.2209 4.03322C22.5386 3.71356 22.9433 3.49587 23.3839 3.40767C23.8245 3.31948 24.2812 3.36474 24.6962 3.53774C25.1112 3.71074 25.466 4.00371 25.7156 4.37959C25.9651 4.75547 26.0983 5.19738 26.0983 5.64945C26.098 6.25555 25.8586 6.83674 25.4327 7.26532C25.0068 7.6939 24.4293 7.93482 23.827 7.93515ZM23.827 3.99226C23.501 3.99226 23.1823 4.08956 22.9113 4.27185C22.6402 4.45413 22.429 4.71322 22.3043 5.01634C22.1796 5.31945 22.147 5.65297 22.2107 5.97471C22.2744 6.29646 22.4315 6.59196 22.6621 6.82385C22.8927 7.05574 23.1865 7.21359 23.5063 7.27744C23.826 7.34129 24.1574 7.30827 24.4585 7.18255C24.7597 7.05683 25.017 6.84407 25.1979 6.57118C25.3788 6.29828 25.4753 5.97751 25.475 5.64945C25.4747 5.20982 25.3009 4.78831 24.9919 4.47756C24.6829 4.16682 24.2639 3.99226 23.827 3.99226Z" fill="#9698A2"/>
<path fill-rule="evenodd" clip-rule="evenodd" d="M7.37255 3.67864C6.98486 3.67839 6.6058 3.79387 6.28334 4.01047C5.96088 4.22706 5.70951 4.53505 5.56103 4.89545C5.41255 5.25585 5.37364 5.65247 5.44922 6.03513C5.52479 6.41779 5.71146 6.7693 5.9856 7.04517C6.25974 7.32105 6.60904 7.50889 6.9893 7.58495C7.36955 7.661 7.76368 7.62184 8.12182 7.47242C8.47996 7.32301 8.786 7.07005 9.00124 6.74555C9.21648 6.42105 9.33123 6.0396 9.33099 5.64945C9.33099 5.12676 9.12465 4.62547 8.75738 4.25587C8.3901 3.88627 7.89196 3.67864 7.37255 3.67864Z" fill="#131314"/>
<path d="M7.37144 7.93515C6.92221 7.93515 6.48307 7.80109 6.10955 7.54994C5.73603 7.29878 5.44491 6.94181 5.27299 6.52415C5.10108 6.10649 5.0561 5.64692 5.14374 5.20353C5.23138 4.76015 5.44771 4.35288 5.76536 4.03322C6.08301 3.71356 6.48772 3.49587 6.92832 3.40767C7.36892 3.31948 7.82561 3.36474 8.24064 3.53774C8.65567 3.71074 9.01041 4.00371 9.25998 4.37959C9.50956 4.75547 9.64277 5.19738 9.64277 5.64945C9.64244 6.25555 9.40304 6.83674 8.97715 7.26532C8.55126 7.6939 7.97373 7.93482 7.37144 7.93515ZM7.37144 3.99226C7.04543 3.99226 6.72676 4.08956 6.45571 4.27185C6.18467 4.45413 5.97344 4.71322 5.84874 5.01634C5.72404 5.31945 5.69148 5.65297 5.75517 5.97471C5.81886 6.29646 5.97594 6.59196 6.20655 6.82385C6.43715 7.05574 6.73092 7.21359 7.05069 7.27744C7.37045 7.34129 7.70186 7.30827 8.00297 7.18255C8.30409 7.05683 8.56139 6.84407 8.74233 6.57118C8.92327 6.29828 9.01971 5.97751 9.01946 5.64945C9.01913 5.20982 8.84536 4.78831 8.53633 4.47756C8.2273 4.16682 7.8083 3.99226 7.37144 3.99226Z" fill="#9698A2"/>
<path fill-rule="evenodd" clip-rule="evenodd" d="M28.9203 7.62153C28.6103 7.62078 28.3069 7.71263 28.0488 7.88545C27.7906 8.05827 27.5891 8.30429 27.47 8.59236C27.3508 8.88044 27.3192 9.19762 27.3793 9.50376C27.4393 9.80989 27.5883 10.0912 27.8072 10.3121C28.0262 10.533 28.3055 10.6836 28.6095 10.7448C28.9136 10.8059 29.2289 10.7749 29.5154 10.6557C29.802 10.5364 30.0469 10.3343 30.2193 10.0749C30.3916 9.8155 30.4836 9.51047 30.4836 9.19843C30.4838 8.9912 30.4433 8.78596 30.3645 8.59449C30.2858 8.40301 30.1702 8.22906 30.0246 8.08258C29.8789 7.9361 29.7059 7.81998 29.5156 7.74086C29.3253 7.66175 29.1213 7.6212 28.9154 7.62153H28.9203Z" fill="#131314"/>
<path d="M28.9204 11.089C28.5489 11.0887 28.1858 10.9776 27.877 10.7697C27.5682 10.5618 27.3276 10.2665 27.1856 9.92103C27.0436 9.57556 27.0066 9.19547 27.0792 8.82883C27.1518 8.46219 27.3309 8.12544 27.5937 7.86117C27.8564 7.5969 28.1912 7.41697 28.5556 7.34413C28.92 7.27128 29.2976 7.30879 29.6408 7.45192C29.984 7.59505 30.2774 7.83736 30.4838 8.14823C30.6901 8.4591 30.8003 8.82456 30.8003 9.19842C30.7999 9.69994 30.6017 10.1808 30.2492 10.5353C29.8967 10.8898 29.4187 11.089 28.9204 11.089ZM28.9204 7.93514C28.6721 7.93539 28.4296 8.00969 28.2233 8.14865C28.017 8.28761 27.8563 8.485 27.7615 8.71585C27.6667 8.94671 27.642 9.20067 27.6906 9.44564C27.7391 9.69061 27.8588 9.91559 28.0344 10.0921C28.21 10.2687 28.4337 10.3889 28.6772 10.4375C28.9207 10.4862 29.173 10.4611 29.4023 10.3654C29.6316 10.2698 29.8276 10.1079 29.9655 9.90013C30.1034 9.69241 30.177 9.44822 30.177 9.19842C30.177 9.03242 30.1445 8.86805 30.0813 8.7147C30.0181 8.56135 29.9255 8.42203 29.8088 8.3047C29.6921 8.18738 29.5536 8.09435 29.4012 8.03094C29.2487 7.96753 29.0853 7.93498 28.9204 7.93514Z" fill="#9698A2"/>
<path fill-rule="evenodd" clip-rule="evenodd" d="M2.27891 7.62152C1.96899 7.62152 1.66603 7.714 1.40834 7.88728C1.15064 8.06055 0.949798 8.30683 0.831195 8.59497C0.712593 8.88311 0.681561 9.20018 0.742024 9.50606C0.802487 9.81195 0.951729 10.0929 1.17088 10.3135C1.39003 10.534 1.66924 10.6842 1.97321 10.745C2.27717 10.8059 2.59225 10.7746 2.87858 10.6553C3.16491 10.5359 3.40964 10.3338 3.58183 10.0745C3.75401 9.81519 3.84591 9.51031 3.84591 9.19843C3.84591 8.99134 3.80538 8.78629 3.72663 8.59497C3.64788 8.40365 3.53246 8.22981 3.38695 8.08339C3.24144 7.93696 3.06869 7.8208 2.87858 7.74156C2.68846 7.66231 2.48469 7.62152 2.27891 7.62152Z" fill="#131314"/>
<path d="M2.27904 11.089C1.90748 11.089 1.54426 10.9781 1.23532 10.7703C0.926378 10.5626 0.685586 10.2673 0.543396 9.9219C0.401205 9.57645 0.364001 9.19633 0.436489 8.8296C0.508977 8.46287 0.687902 8.12601 0.950636 7.86162C1.21337 7.59722 1.54811 7.41717 1.91254 7.34422C2.27696 7.27127 2.65469 7.30871 2.99797 7.4518C3.34125 7.59489 3.63466 7.8372 3.84109 8.1481C4.04752 8.459 4.1577 8.82451 4.1577 9.19842C4.15704 9.69962 3.9589 10.1801 3.60672 10.5345C3.25455 10.8889 2.77709 11.0883 2.27904 11.089ZM2.27904 7.93514C2.03076 7.93514 1.78805 8.00923 1.58161 8.14804C1.37517 8.28685 1.21427 8.48415 1.11926 8.71499C1.02424 8.94582 0.999384 9.19982 1.04782 9.44488C1.09626 9.68993 1.21582 9.91502 1.39138 10.0917C1.56695 10.2684 1.79063 10.3887 2.03414 10.4374C2.27765 10.4862 2.53006 10.4612 2.75944 10.3655C2.98883 10.2699 3.18489 10.108 3.32282 9.90026C3.46076 9.69252 3.53439 9.44828 3.53439 9.19842C3.53406 8.86348 3.40169 8.54235 3.16634 8.30551C2.93099 8.06868 2.61188 7.93547 2.27904 7.93514Z" fill="#9698A2"/>
<path fill-rule="evenodd" clip-rule="evenodd" d="M15.5705 9.19843C10.2761 9.19843 7.76416 13.2304 7.76416 16.2951H23.4366C23.4366 13.2304 20.8649 9.19843 15.5717 9.19843H15.5705Z" fill="#131314"/>
<path d="M23.4368 16.6087H7.76429C7.68164 16.6087 7.60236 16.5757 7.54392 16.5169C7.48547 16.4581 7.45264 16.3783 7.45264 16.2951C7.45264 13.2178 9.9708 8.8848 15.5706 8.8848C21.2103 8.8848 23.7472 13.2178 23.7472 16.2951C23.7472 16.3781 23.7145 16.4577 23.6563 16.5164C23.5982 16.5752 23.5192 16.6084 23.4368 16.6087ZM8.08592 15.9815H23.1151C22.9493 13.1927 20.5907 9.51205 15.5719 9.51205C10.5904 9.51205 8.25047 13.1927 8.08592 15.9815Z" fill="#9698A2"/>
<path fill-rule="evenodd" clip-rule="evenodd" d="M15.6003 8.40935C14.1044 8.40935 13.8152 12.5893 12.4539 12.7424C11.0689 12.8967 9.88583 8.80702 8.46469 9.22979C7.32777 9.56349 7.87254 12.6169 7.09341 13.041C6.02132 13.6067 4.66624 10.9547 3.05811 12.0662C8.26024 18.4729 9.20892 20.2945 9.13163 24.9687H22.0653C21.9867 20.2945 22.9379 18.4729 28.1376 12.0662C26.5357 10.9535 25.1806 13.6055 24.1147 13.0359C23.3331 12.6182 23.8779 9.56098 22.7434 9.22477C21.3223 8.80702 20.1343 12.8917 18.7543 12.7374C17.3867 12.5893 17.0988 8.40935 15.6003 8.40935Z" fill="#131314"/>
<path d="M22.0654 25.2824H9.13671C9.09534 25.2825 9.05437 25.2742 9.01625 25.258C8.97812 25.2419 8.94362 25.2181 8.91482 25.1883C8.88547 25.1589 8.86238 25.1239 8.84695 25.0853C8.83151 25.0467 8.82407 25.0053 8.82506 24.9637C8.89861 20.4475 8.11324 18.7828 2.82135 12.2657C2.7941 12.2319 2.77406 12.1929 2.76248 12.151C2.7509 12.1092 2.74802 12.0653 2.75403 12.0223C2.76003 11.9794 2.77489 11.9383 2.79765 11.9016C2.82041 11.8648 2.85056 11.8333 2.88617 11.809C3.96948 11.0563 4.97924 11.7576 5.71599 12.2707C6.29443 12.6721 6.66592 12.9067 6.94142 12.7587C7.14836 12.6483 7.23687 11.8805 7.30045 11.321C7.41763 10.3174 7.54977 9.1658 8.37254 8.92369C9.32745 8.64393 10.0742 9.74287 10.796 10.8054C11.3308 11.592 11.9366 12.4852 12.4166 12.4363C12.8965 12.3874 13.2892 11.3938 13.637 10.5207C14.1157 9.3314 14.6106 8.10199 15.5967 8.10199C16.5828 8.10199 17.0777 9.33265 17.5564 10.5219C17.9079 11.4001 18.3043 12.3836 18.7768 12.4363C19.2493 12.489 19.8676 11.597 20.3974 10.8054C21.1205 9.74413 21.8672 8.64519 22.8196 8.92369C23.6436 9.16706 23.7757 10.3124 23.8929 11.3223C23.9565 11.8818 24.045 12.6483 24.252 12.7587C24.5275 12.9067 24.8989 12.6721 25.4774 12.2694C26.2141 11.7576 27.2226 11.0563 28.306 11.809C28.3416 11.8333 28.3717 11.8648 28.3945 11.9016C28.4172 11.9383 28.4321 11.9794 28.4381 12.0223C28.4438 12.0653 28.4408 12.1091 28.4292 12.1509C28.4176 12.1928 28.3978 12.2318 28.3708 12.2657C23.0864 18.7828 22.301 20.4437 22.3808 24.9637C22.3813 25.0053 22.3736 25.0465 22.3582 25.0851C22.3427 25.1236 22.3199 25.1587 22.2909 25.1884C22.2619 25.218 22.2274 25.2415 22.1894 25.2577C22.1513 25.2738 22.1104 25.2822 22.0691 25.2824H22.0654ZM9.45211 24.6551H21.75C21.7251 20.0348 22.9143 18.0201 27.6565 12.1641C27.0942 11.9646 26.5532 12.2895 25.8401 12.7913C25.2306 13.2153 24.5935 13.6557 23.9702 13.3182C23.4716 13.0522 23.3868 12.287 23.2846 11.4001C23.1948 10.6235 23.0839 9.65757 22.6613 9.52961C22.1439 9.37907 21.4982 10.3262 20.9285 11.1605C20.2316 12.1829 19.5759 13.1476 18.7207 13.056C17.8655 12.9644 17.4479 11.8893 16.9904 10.7527C16.6077 9.80309 16.1739 8.72547 15.6079 8.72547C15.0419 8.72547 14.6106 9.80184 14.2267 10.7527C13.7691 11.8893 13.3366 12.9619 12.4964 13.056C11.6561 13.1501 10.9842 12.1854 10.2898 11.1617C9.72013 10.325 9.07438 9.37656 8.55579 9.53086C8.1282 9.65631 8.01725 10.6223 7.93248 11.3988C7.83026 12.2857 7.74175 13.051 7.24684 13.3169C6.61605 13.6557 5.98402 13.2153 5.37691 12.7913C4.66385 12.2895 4.12282 11.9696 3.56059 12.1641C8.28652 18.0213 9.47579 20.0348 9.45211 24.6551Z" fill="#9698A2"/>
<path fill-rule="evenodd" clip-rule="evenodd" d="M6.05032 27.415C6.01102 27.9552 6.01644 28.4978 6.06653 29.0371H25.1398C25.1899 28.4978 25.1953 27.9552 25.156 27.415C25.0872 26.636 24.7301 25.9113 24.1554 25.3848C23.5807 24.8583 22.8303 24.5683 22.0532 24.5723H9.15315C8.37604 24.5686 7.62588 24.8587 7.05123 25.3852C6.47659 25.9116 6.11937 26.6361 6.05032 27.415Z" fill="#131314"/>
<path d="M25.1382 29.3507H6.06491C5.98693 29.351 5.91169 29.3217 5.85418 29.2687C5.79666 29.2157 5.76108 29.1429 5.7545 29.0647C5.70232 28.5079 5.69649 27.9477 5.73705 27.3899C5.81398 26.5324 6.20711 25.7349 6.83904 25.1545C7.47098 24.574 8.29594 24.2527 9.15153 24.2537H22.0515C22.9071 24.2524 23.732 24.5737 24.3638 25.1543C24.9956 25.7348 25.3884 26.5324 25.4648 27.3899C25.5058 27.9476 25.5004 28.5078 25.4486 29.0647C25.4417 29.1428 25.406 29.2154 25.3486 29.2684C25.2911 29.3213 25.2161 29.3507 25.1382 29.3507ZM6.35537 28.7234H24.8489C24.879 28.2962 24.879 27.8673 24.8489 27.4401C24.7842 26.7405 24.4618 26.0905 23.9451 25.6179C23.4284 25.1452 22.7548 24.8842 22.0565 24.8859H9.15278C8.45437 24.8836 7.7804 25.1445 7.26357 25.6172C6.74675 26.0899 6.42453 26.7402 6.36036 27.4401C6.32801 27.8672 6.32634 28.2961 6.35537 28.7234Z" fill="#9698A2"/>
<path d="M23.8392 29.7898H7.3639C7.28124 29.7898 7.20197 29.7567 7.14353 29.6979C7.08508 29.6391 7.05225 29.5593 7.05225 29.4761C7.05225 29.393 7.08508 29.3132 7.14353 29.2544C7.20197 29.1956 7.28124 29.1625 7.3639 29.1625H23.8392C23.9219 29.1625 24.0011 29.1956 24.0596 29.2544C24.118 29.3132 24.1509 29.393 24.1509 29.4761C24.1509 29.5593 24.118 29.6391 24.0596 29.6979C24.0011 29.7567 23.9219 29.7898 23.8392 29.7898Z" fill="#9698A2"/>
</svg>
