<svg width="29" height="30" viewBox="0 0 29 30" fill="none" xmlns="http://www.w3.org/2000/svg">
<g clip-path="url(#clip0_1006_73058)">
<path d="M9.20282 10.8885L6.75684 24.7521H14.4002H14.4172H22.0606L19.6146 10.8885H9.20282Z" fill="#131314"/>
<path d="M22.0593 25.0912H6.75682C6.70811 25.0915 6.65996 25.0804 6.61589 25.059C6.57182 25.0375 6.53292 25.0061 6.50204 24.9672C6.47115 24.9282 6.44905 24.8826 6.43734 24.8336C6.42563 24.7847 6.42461 24.7337 6.43436 24.6843L8.88034 10.8206C8.89414 10.7426 8.93398 10.672 8.9929 10.6212C9.05182 10.5704 9.1261 10.5426 9.2028 10.5426H19.6146C19.6912 10.5428 19.7654 10.5707 19.8243 10.6215C19.8831 10.6723 19.923 10.7427 19.9371 10.8206L22.3817 24.6843C22.3907 24.7332 22.389 24.7835 22.3768 24.8316C22.3645 24.8798 22.342 24.9244 22.311 24.9624C22.2809 25.0019 22.2427 25.034 22.1992 25.0563C22.1557 25.0785 22.1079 25.0905 22.0593 25.0912ZM7.15006 24.413H21.6673L19.3406 11.2276H9.47545L7.15006 24.413Z" fill="#9698A2"/>
<path d="M19.3155 3.73621L18.9223 5.10616L16.2102 5.0302L16.0372 3.73621H12.7759L12.6015 5.0302L9.89075 5.10616L9.4975 3.73621H6.47607C6.54161 9.22281 7.76198 10.9386 9.20388 10.9386C10.98 10.9047 13.0773 10.8871 14.4091 10.8871C15.7409 10.8871 17.8395 10.9047 19.6157 10.9386C21.0576 10.9386 22.2766 9.22281 22.3409 3.73621H19.3155Z" fill="#131314"/>
<path d="M19.6145 11.2777C17.7793 11.2425 15.703 11.2262 14.4381 11.2262H14.3778C13.1128 11.2262 11.0352 11.2425 9.20923 11.2777C7.23515 11.2777 6.20878 8.74129 6.14848 3.74028C6.14778 3.69536 6.15575 3.65074 6.17192 3.60905C6.1881 3.56735 6.21215 3.52942 6.24266 3.49746C6.27318 3.4655 6.30955 3.44017 6.34965 3.42294C6.38975 3.40571 6.43277 3.39693 6.47618 3.39711H9.50023C9.57097 3.39703 9.63984 3.42063 9.69654 3.46439C9.75324 3.50815 9.79474 3.56972 9.81483 3.63991L10.1334 4.76029L12.3159 4.69925L12.4469 3.68874C12.4583 3.60784 12.4974 3.53387 12.557 3.48032C12.6167 3.42678 12.693 3.39724 12.772 3.39711H16.0373C16.1161 3.39729 16.1923 3.42687 16.2517 3.48044C16.3112 3.534 16.35 3.60796 16.361 3.68874L16.4921 4.69925L18.6733 4.76029L18.9932 3.63991C19.0132 3.56995 19.0545 3.50853 19.1109 3.46479C19.1674 3.42105 19.2359 3.39732 19.3064 3.39711H22.3305C22.3739 3.39693 22.4169 3.40571 22.457 3.42294C22.4971 3.44017 22.5335 3.4655 22.564 3.49746C22.5945 3.52942 22.6186 3.56735 22.6348 3.60905C22.6509 3.65074 22.6589 3.69536 22.6582 3.74028C22.6084 8.74129 21.5807 11.2777 19.6145 11.2777ZM14.4381 10.548C15.7069 10.548 17.7898 10.5643 19.6197 10.5996C21.5427 10.5996 21.9477 6.66602 22.0067 4.07531H19.5594L19.2383 5.20247C19.2178 5.27401 19.1751 5.33657 19.1169 5.38046C19.0586 5.42436 18.9879 5.44713 18.9158 5.44526L16.2051 5.36931C16.1275 5.36748 16.0531 5.33712 15.9952 5.28368C15.9373 5.23024 15.8997 5.15721 15.8891 5.07768L15.7581 4.07531H13.0617L12.9306 5.07768C12.9197 5.15755 12.8817 5.23078 12.8233 5.28423C12.7649 5.33768 12.69 5.36784 12.6121 5.36931L9.90134 5.44526C9.8292 5.44675 9.75855 5.42385 9.70012 5.38004C9.64169 5.33622 9.59866 5.27388 9.57757 5.20247L9.25642 4.07531H6.81044C6.86812 6.66195 7.27447 10.5996 9.20268 10.5996C11.0273 10.5643 13.1102 10.548 14.3778 10.548H14.4381Z" fill="#9698A2"/>
<path fill-rule="evenodd" clip-rule="evenodd" d="M4.35382 27.2248C4.31226 27.8089 4.3184 28.3956 4.37217 28.9787H24.4277C24.481 28.3956 24.4867 27.8089 24.4447 27.2248C24.3724 26.3825 23.9969 25.599 23.3926 25.0298C22.7882 24.4605 21.9993 24.1469 21.1821 24.1513H7.61775C6.80031 24.1466 6.01103 24.46 5.40645 25.0293C4.80187 25.5986 4.42615 26.3823 4.35382 27.2248Z" fill="#131314"/>
<path d="M24.4262 29.3178H4.37076C4.28876 29.3181 4.20966 29.2864 4.14918 29.2291C4.0887 29.1718 4.05129 29.093 4.04437 29.0085C3.99016 28.4065 3.98403 27.8008 4.02602 27.1977C4.10691 26.2706 4.52029 25.4083 5.18477 24.7807C5.84925 24.1531 6.71669 23.8057 7.61634 23.8067H21.1807C22.0803 23.8057 22.9478 24.1531 23.6122 24.7807C24.2767 25.4083 24.6901 26.2706 24.771 27.1977C24.8136 27.8008 24.8075 28.4065 24.7526 29.0085C24.7457 29.093 24.7083 29.1718 24.6478 29.2291C24.5873 29.2864 24.5082 29.3181 24.4262 29.3178ZM4.67618 28.6396H24.1221C24.1544 28.1776 24.1544 27.7139 24.1221 27.252C24.0544 26.4954 23.7155 25.7924 23.1721 25.2814C22.6287 24.7703 21.9202 24.4881 21.1859 24.4904H7.61765C6.88345 24.4884 6.17509 24.7707 5.63178 25.2817C5.08847 25.7927 4.74948 26.4955 4.68143 27.252C4.64806 27.7138 4.64631 28.1775 4.67618 28.6396Z" fill="#9698A2"/>
<path d="M9.20282 10.8885L6.75684 24.7521H14.4002H14.4172H22.0606L19.6146 10.8885H9.20282Z" fill="#131314"/>
<path d="M22.0593 25.0912H6.75682C6.70811 25.0915 6.65996 25.0804 6.61589 25.059C6.57182 25.0375 6.53292 25.0061 6.50204 24.9672C6.47115 24.9282 6.44905 24.8826 6.43734 24.8336C6.42563 24.7847 6.42461 24.7337 6.43436 24.6843L8.88034 10.8206C8.89414 10.7426 8.93398 10.672 8.9929 10.6212C9.05182 10.5704 9.1261 10.5426 9.2028 10.5426H19.6146C19.6912 10.5428 19.7654 10.5707 19.8243 10.6215C19.8831 10.6723 19.923 10.7427 19.9371 10.8206L22.3817 24.6843C22.3907 24.7332 22.389 24.7835 22.3768 24.8316C22.3645 24.8798 22.342 24.9244 22.311 24.9624C22.2809 25.0019 22.2427 25.034 22.1992 25.0563C22.1557 25.0785 22.1079 25.0905 22.0593 25.0912ZM7.15006 24.413H21.6673L19.3406 11.2276H9.47545L7.15006 24.413Z" fill="#9698A2"/>
<path d="M19.3155 3.73621L18.9223 5.10616L16.2102 5.0302L16.0372 3.73621H12.7759L12.6015 5.0302L9.89075 5.10616L9.4975 3.73621H6.47607C6.54161 9.22281 7.76198 10.9386 9.20388 10.9386C10.98 10.9047 13.0773 10.8871 14.4091 10.8871C15.7409 10.8871 17.8395 10.9047 19.6157 10.9386C21.0576 10.9386 22.2766 9.22281 22.3409 3.73621H19.3155Z" fill="#131314"/>
<path d="M19.6145 11.2777C17.7793 11.2425 15.703 11.2262 14.4381 11.2262H14.3778C13.1128 11.2262 11.0352 11.2425 9.20923 11.2777C7.23515 11.2777 6.20878 8.74129 6.14848 3.74028C6.14778 3.69536 6.15575 3.65074 6.17192 3.60905C6.1881 3.56735 6.21215 3.52942 6.24266 3.49746C6.27318 3.4655 6.30955 3.44017 6.34965 3.42294C6.38975 3.40571 6.43277 3.39693 6.47618 3.39711H9.50023C9.57097 3.39703 9.63984 3.42063 9.69654 3.46439C9.75324 3.50815 9.79474 3.56972 9.81483 3.63991L10.1334 4.76029L12.3159 4.69925L12.4469 3.68874C12.4583 3.60784 12.4974 3.53387 12.557 3.48032C12.6167 3.42678 12.693 3.39724 12.772 3.39711H16.0373C16.1161 3.39729 16.1923 3.42687 16.2517 3.48044C16.3112 3.534 16.35 3.60796 16.361 3.68874L16.4921 4.69925L18.6733 4.76029L18.9932 3.63991C19.0132 3.56995 19.0545 3.50853 19.1109 3.46479C19.1674 3.42105 19.2359 3.39732 19.3064 3.39711H22.3305C22.3739 3.39693 22.4169 3.40571 22.457 3.42294C22.4971 3.44017 22.5335 3.4655 22.564 3.49746C22.5945 3.52942 22.6186 3.56735 22.6348 3.60905C22.6509 3.65074 22.6589 3.69536 22.6582 3.74028C22.6084 8.74129 21.5807 11.2777 19.6145 11.2777ZM14.4381 10.548C15.7069 10.548 17.7898 10.5643 19.6197 10.5996C21.5427 10.5996 21.9477 6.66602 22.0067 4.07531H19.5594L19.2383 5.20247C19.2178 5.27401 19.1751 5.33657 19.1169 5.38046C19.0586 5.42436 18.9879 5.44713 18.9158 5.44526L16.2051 5.36931C16.1275 5.36748 16.0531 5.33712 15.9952 5.28368C15.9373 5.23024 15.8997 5.15721 15.8891 5.07768L15.7581 4.07531H13.0617L12.9306 5.07768C12.9197 5.15755 12.8817 5.23078 12.8233 5.28423C12.7649 5.33768 12.69 5.36784 12.6121 5.36931L9.90134 5.44526C9.8292 5.44675 9.75855 5.42385 9.70012 5.38004C9.64169 5.33622 9.59866 5.27388 9.57757 5.20247L9.25642 4.07531H6.81044C6.86812 6.66195 7.27447 10.5996 9.20268 10.5996C11.0273 10.5643 13.1102 10.548 14.3778 10.548H14.4381Z" fill="#9698A2"/>
<path fill-rule="evenodd" clip-rule="evenodd" d="M4.35382 27.2248C4.31226 27.8089 4.3184 28.3956 4.37217 28.9787H24.4277C24.481 28.3956 24.4867 27.8089 24.4447 27.2248C24.3724 26.3825 23.9969 25.599 23.3926 25.0298C22.7882 24.4605 21.9993 24.1469 21.1821 24.1513H7.61775C6.80031 24.1466 6.01103 24.46 5.40645 25.0293C4.80187 25.5986 4.42615 26.3823 4.35382 27.2248Z" fill="#131314"/>
<path d="M24.4262 29.3178H4.37076C4.28876 29.3181 4.20966 29.2864 4.14918 29.2291C4.0887 29.1718 4.05129 29.093 4.04437 29.0085C3.99016 28.4065 3.98403 27.8008 4.02602 27.1977C4.10691 26.2706 4.52029 25.4083 5.18477 24.7807C5.84925 24.1531 6.71669 23.8057 7.61634 23.8067H21.1807C22.0803 23.8057 22.9478 24.1531 23.6122 24.7807C24.2767 25.4083 24.6901 26.2706 24.771 27.1977C24.8136 27.8008 24.8075 28.4065 24.7526 29.0085C24.7457 29.093 24.7083 29.1718 24.6478 29.2291C24.5873 29.2864 24.5082 29.3181 24.4262 29.3178ZM4.67618 28.6396H24.1221C24.1544 28.1776 24.1544 27.7139 24.1221 27.252C24.0544 26.4954 23.7155 25.7924 23.1721 25.2814C22.6287 24.7703 21.9202 24.4881 21.1859 24.4904H7.61765C6.88345 24.4884 6.17509 24.7707 5.63178 25.2817C5.08847 25.7927 4.74948 26.4955 4.68143 27.252C4.64806 27.7138 4.64631 28.1775 4.67618 28.6396Z" fill="#9698A2"/>
<path d="M23.0699 29.7925H5.74616C5.65925 29.7925 5.5759 29.7568 5.51444 29.6932C5.45298 29.6296 5.41846 29.5433 5.41846 29.4534C5.41846 29.3635 5.45298 29.2772 5.51444 29.2136C5.5759 29.15 5.65925 29.1143 5.74616 29.1143H23.0699C23.1568 29.1143 23.2402 29.15 23.3016 29.2136C23.3631 29.2772 23.3976 29.3635 23.3976 29.4534C23.3976 29.5433 23.3631 29.6296 23.3016 29.6932C23.2402 29.7568 23.1568 29.7925 23.0699 29.7925Z" fill="#9698A2"/>
</g>
<defs>
<clipPath id="clip0_1006_73058">
<rect width="20.8" height="26.3927" fill="white" transform="translate(4 3.39711)"/>
</clipPath>
</defs>
</svg>
