<svg width="29" height="30" viewBox="0 0 29 30" fill="none" xmlns="http://www.w3.org/2000/svg">
<g clip-path="url(#clip0_1006_73147)">
<path fill-rule="evenodd" clip-rule="evenodd" d="M20.6648 10.4857L18.4776 13.8835C17.9861 14.6463 17.0473 14.9327 16.3568 14.525C15.6663 14.1173 15.5168 13.1756 16.0083 12.4128L18.8521 7.99451C18.0181 7.02847 17.1087 6.12502 16.1318 5.29201C16.4298 4.94751 16.6195 4.5285 16.6788 4.08404C16.7381 3.63959 16.6646 3.18808 16.4667 2.78238C16.2689 2.37667 15.955 2.03356 15.5618 1.7932C15.1686 1.55285 14.7123 1.4252 14.2463 1.4252C13.7804 1.4252 13.3241 1.55285 12.9309 1.7932C12.5377 2.03356 12.2238 2.37667 12.0259 2.78238C11.8281 3.18808 11.7545 3.63959 11.8139 4.08404C11.8732 4.5285 12.0629 4.94751 12.3608 5.29201C0.917881 15.1466 8.38832 24.7147 8.38832 24.7147H20.1031C20.1031 24.7147 25.2667 18.1142 20.6648 10.4857Z" fill="#F5F5F5"/>
<path d="M20.1069 25.0311H8.39215C8.34171 25.0309 8.29201 25.0195 8.2469 24.9978C8.20179 24.9761 8.1625 24.9447 8.13208 24.906C8.05406 24.806 6.20628 22.4049 5.76286 18.7382C5.03858 12.7504 8.66132 8.12957 11.9278 5.2545C11.652 4.85176 11.4948 4.38476 11.4727 3.90303C11.4507 3.4213 11.5646 2.94281 11.8025 2.51832C12.0403 2.09384 12.3932 1.73918 12.8237 1.49198C13.2541 1.24478 13.7462 1.11426 14.2476 1.11426C14.749 1.11426 15.241 1.24478 15.6715 1.49198C16.102 1.73918 16.4548 2.09384 16.6927 2.51832C16.9305 2.94281 17.0445 3.4213 17.0224 3.90303C17.0003 4.38476 16.8431 4.85176 16.5674 5.2545C17.4743 6.04433 18.3216 6.8952 19.103 7.80067C19.1461 7.85125 19.1717 7.91344 19.1763 7.97864C19.181 8.04384 19.1645 8.10882 19.129 8.16459L16.2826 12.5779C16.0901 12.8672 16.0116 13.2132 16.0615 13.5533C16.081 13.6963 16.1326 13.8334 16.2127 13.9552C16.2929 14.0771 16.3997 14.1806 16.5258 14.2586C17.055 14.5738 17.8053 14.3312 18.1993 13.7196L20.3878 10.3206C20.4169 10.2755 20.4575 10.2383 20.5057 10.2125C20.554 10.1867 20.6082 10.1731 20.6634 10.173C20.7196 10.1737 20.7745 10.1885 20.8229 10.216C20.8712 10.2434 20.9113 10.2825 20.9391 10.3293C23.372 14.3624 23.0873 18.1092 22.4189 20.5428C21.6972 23.1765 20.4151 24.8373 20.3605 24.906C20.3309 24.9441 20.2927 24.9752 20.2487 24.9968C20.2048 25.0185 20.1563 25.0302 20.1069 25.0311ZM8.56119 24.4058H19.9378C20.7857 23.1641 21.4161 21.797 21.8038 20.359C22.6751 17.1612 22.2863 14.0485 20.6504 11.1047L18.7532 14.0485C18.1707 14.954 17.0186 15.2866 16.1851 14.7901C15.9788 14.6655 15.8035 14.4989 15.6714 14.3021C15.5393 14.1052 15.4536 13.883 15.4205 13.6509C15.3462 13.1629 15.4565 12.6654 15.7313 12.249L18.4529 8.02327C17.669 7.13317 16.8208 6.29737 15.9146 5.52212C15.8518 5.46823 15.8132 5.39302 15.8069 5.31233C15.8006 5.23163 15.8271 5.15173 15.8808 5.08942C16.14 4.79078 16.3053 4.42726 16.3573 4.04149C16.4093 3.65572 16.3458 3.26368 16.1744 2.91134C16.003 2.55901 15.7307 2.26097 15.3894 2.05218C15.0481 1.84338 14.652 1.73248 14.2476 1.73248C13.8431 1.73248 13.447 1.84338 13.1057 2.05218C12.7644 2.26097 12.4921 2.55901 12.3207 2.91134C12.1493 3.26368 12.0859 3.65572 12.1379 4.04149C12.1899 4.42726 12.3552 4.79078 12.6143 5.08942C12.6682 5.15158 12.6949 5.23139 12.6888 5.31208C12.6828 5.39277 12.6444 5.46805 12.5818 5.52212C10.0085 7.73689 8.2049 10.1155 7.21794 12.5941C6.43871 14.5228 6.16062 16.6052 6.40783 18.6607C6.65744 20.7093 7.39426 22.6752 8.56119 24.4058Z" fill="#9698A2"/>
<path fill-rule="evenodd" clip-rule="evenodd" d="M4.31943 27.541C4.2782 28.0795 4.28429 28.6205 4.33763 29.158H24.2328C24.2857 28.6204 24.2914 28.0795 24.2497 27.541C24.178 26.7644 23.8054 26.0421 23.206 25.5172C22.6065 24.9923 21.8238 24.7032 21.0132 24.7072H7.55727C6.74636 24.7029 5.96338 24.9918 5.36364 25.5167C4.76389 26.0417 4.39118 26.7642 4.31943 27.541Z" fill="#F5F5F5"/>
<path d="M24.2315 29.4706H4.33632C4.25498 29.4709 4.1765 29.4417 4.11651 29.3889C4.05652 29.3361 4.0194 29.2635 4.01254 29.1855C3.9585 28.6304 3.95285 28.072 3.99563 27.516C4.07528 26.6612 4.48499 25.866 5.14401 25.2873C5.80303 24.7086 6.66355 24.3883 7.55596 24.3896H21.0119C21.9043 24.3886 22.7648 24.7089 23.424 25.2876C24.0832 25.8662 24.4932 26.6612 24.5735 27.516C24.6158 28.072 24.6097 28.6305 24.5553 29.1855C24.5484 29.2635 24.5113 29.3361 24.4513 29.3889C24.3913 29.4417 24.3128 29.4709 24.2315 29.4706ZM4.6393 28.8454H23.9298C23.9618 28.4195 23.9618 27.9919 23.9298 27.566C23.8626 26.8685 23.5264 26.2203 22.9874 25.7491C22.4483 25.278 21.7455 25.0178 21.0171 25.0199H7.55726C6.82892 25.0181 6.12623 25.2783 5.58726 25.7495C5.04829 26.2206 4.71201 26.8686 4.6445 27.566C4.61076 27.9918 4.60902 28.4194 4.6393 28.8454Z" fill="#9698A2"/>
<path d="M22.8775 29.9083H5.69227C5.60605 29.9083 5.52337 29.8754 5.4624 29.8168C5.40144 29.7581 5.36719 29.6786 5.36719 29.5957C5.36719 29.5128 5.40144 29.4333 5.4624 29.3746C5.52337 29.316 5.60605 29.2831 5.69227 29.2831H22.8775C22.9638 29.2831 23.0464 29.316 23.1074 29.3746C23.1684 29.4333 23.2026 29.5128 23.2026 29.5957C23.2026 29.6786 23.1684 29.7581 23.1074 29.8168C23.0464 29.8754 22.9638 29.9083 22.8775 29.9083Z" fill="#9698A2"/>
</g>
<defs>
<clipPath id="clip0_1006_73147">
<rect width="20.6338" height="28.792" fill="white" transform="translate(3.96826 1.11383)"/>
</clipPath>
</defs>
</svg>
