<svg width="30" height="31" viewBox="0 0 30 31" fill="none" xmlns="http://www.w3.org/2000/svg">
<g clip-path="url(#clip0_1006_73134)">
<path fill-rule="evenodd" clip-rule="evenodd" d="M9.75641 26.6356C9.75641 26.6356 5.2915 16.7938 5.95917 14.8793C6.62684 12.9649 10.8354 11.5587 14.7114 11.5587C18.5875 11.5587 22.7998 12.9612 23.4637 14.8793C24.1277 16.7975 19.669 26.6356 19.669 26.6356H9.75641Z" fill="#F5F5F5"/>
<path d="M19.6788 26.9447H9.75626C9.69609 26.9448 9.63719 26.9277 9.58662 26.8954C9.53605 26.8632 9.49597 26.8172 9.47118 26.7629C9.00856 25.7439 4.97001 16.7517 5.66394 14.7792C6.42539 12.5988 10.9553 11.2496 14.7163 11.2496C18.4773 11.2496 23.0097 12.5988 23.7687 14.7792C24.4576 16.7579 20.4253 25.7439 19.9639 26.7629C19.9389 26.817 19.8987 26.8628 19.8482 26.895C19.7977 26.9272 19.7389 26.9445 19.6788 26.9447ZM9.95881 26.3264H19.4763C21.243 22.4072 23.6311 16.283 23.1773 14.9807C22.5996 13.3223 18.6461 11.8679 14.7163 11.8679C10.7865 11.8679 6.83924 13.3223 6.25409 14.9807C6.1128 15.3913 6.13781 16.7579 7.89827 21.3634C8.75599 23.6068 9.68249 25.708 9.95881 26.3264Z" fill="#9698A2"/>
<path d="M13.2398 9.6814V7.18942H10.4028V4.39444H13.2398V1.62296H16.1931V4.39444H19.0301V7.18942H16.1931V9.6814" fill="#F5F5F5"/>
<path d="M16.5058 9.68141H15.8806V7.18943C15.8804 7.14878 15.8884 7.1085 15.904 7.07092C15.9197 7.03333 15.9427 6.99918 15.9718 6.97044C16.0008 6.9417 16.0354 6.91893 16.0734 6.90345C16.1114 6.88797 16.1521 6.88009 16.1932 6.88025H18.7176V4.70363H16.1932C16.1103 4.70363 16.0308 4.67105 15.9721 4.61307C15.9135 4.55509 15.8806 4.47645 15.8806 4.39445V1.93214H13.5525V4.39445C13.5527 4.4351 13.5447 4.47537 13.529 4.51296C13.5134 4.55054 13.4904 4.58469 13.4613 4.61343C13.4322 4.64218 13.3977 4.66495 13.3597 4.68043C13.3217 4.69591 13.281 4.70379 13.2399 4.70363H10.7155V6.88025H13.2399C13.281 6.88009 13.3217 6.88797 13.3597 6.90345C13.3977 6.91893 13.4322 6.9417 13.4613 6.97044C13.4904 6.99918 13.5134 7.03333 13.529 7.07092C13.5447 7.1085 13.5527 7.14878 13.5525 7.18943V9.68141H12.9273V7.49861H10.4029C10.32 7.49861 10.2405 7.46603 10.1819 7.40805C10.1233 7.35007 10.0903 7.27143 10.0903 7.18943V4.39445C10.0902 4.3538 10.0981 4.31352 10.1138 4.27594C10.1294 4.23835 10.1525 4.2042 10.1815 4.17546C10.2106 4.14672 10.2451 4.12395 10.2831 4.10847C10.3211 4.09299 10.3618 4.0851 10.4029 4.08527H12.9273V1.62296C12.9273 1.54096 12.9603 1.46232 13.0189 1.40434C13.0775 1.34636 13.157 1.31378 13.2399 1.31378H16.1932C16.2343 1.31362 16.275 1.32151 16.313 1.33699C16.351 1.35247 16.3855 1.37523 16.4146 1.40398C16.4436 1.43272 16.4666 1.46687 16.4823 1.50445C16.4979 1.54204 16.5059 1.58232 16.5058 1.62296V4.08527H19.0302C19.0713 4.0851 19.112 4.09299 19.15 4.10847C19.188 4.12395 19.2225 4.14672 19.2516 4.17546C19.2806 4.2042 19.3036 4.23835 19.3193 4.27594C19.3349 4.31352 19.3429 4.3538 19.3427 4.39445V7.18943C19.3427 7.27143 19.3098 7.35007 19.2512 7.40805C19.1926 7.46603 19.1131 7.49861 19.0302 7.49861H16.5058V9.68141Z" fill="#9698A2"/>
<path fill-rule="evenodd" clip-rule="evenodd" d="M16.9608 9.6814H12.4447C12.3173 9.68248 12.1917 9.71002 12.0758 9.76221C11.9599 9.81441 11.8564 9.8901 11.772 9.98439C11.5923 10.1859 11.4932 10.4454 11.4932 10.7141C11.4932 10.9827 11.5923 11.2422 11.772 11.4437C11.8567 11.5376 11.9602 11.6129 12.0761 11.6649C12.1919 11.7169 12.3175 11.7443 12.4447 11.7455H16.9608C17.088 11.7443 17.2136 11.7169 17.3294 11.6649C17.4453 11.6129 17.5488 11.5376 17.6335 11.4437C17.8132 11.2422 17.9123 10.9827 17.9123 10.7141C17.9123 10.4454 17.8132 10.1859 17.6335 9.98439C17.5491 9.8901 17.4456 9.81441 17.3297 9.76221C17.2138 9.71002 17.0882 9.68248 16.9608 9.6814Z" fill="#F5F5F5"/>
<path d="M16.9607 12.0522H12.4445C12.2738 12.0506 12.1054 12.0139 11.9498 11.9445C11.7941 11.8751 11.6548 11.7745 11.5406 11.649C11.3081 11.3906 11.1797 11.0568 11.1797 10.711C11.1797 10.3651 11.3081 10.0313 11.5406 9.77292C11.6545 9.64739 11.7936 9.54672 11.949 9.4773C12.1044 9.40789 12.2728 9.37126 12.4433 9.36975H16.9595C17.1302 9.37139 17.2986 9.40807 17.4543 9.47747C17.6099 9.54687 17.7492 9.64748 17.8635 9.77292C18.0959 10.0313 18.2243 10.3651 18.2243 10.711C18.2243 11.0568 18.0959 11.3906 17.8635 11.649C17.7495 11.7745 17.6104 11.8752 17.455 11.9446C17.2996 12.0141 17.1312 12.0507 16.9607 12.0522ZM12.4445 9.98811C12.3608 9.98917 12.2782 10.0077 12.2021 10.0424C12.1261 10.0771 12.0583 10.1273 12.0032 10.1897C11.8757 10.3341 11.8055 10.5193 11.8055 10.711C11.8055 10.9026 11.8757 11.0878 12.0032 11.2322C12.0583 11.2946 12.1261 11.3448 12.2021 11.3795C12.2782 11.4143 12.3608 11.4328 12.4445 11.4338H16.9607C17.0445 11.4328 17.1271 11.4143 17.2031 11.3795C17.2792 11.3448 17.347 11.2946 17.4021 11.2322C17.5295 11.0878 17.5997 10.9026 17.5997 10.711C17.5997 10.5193 17.5295 10.3341 17.4021 10.1897C17.347 10.1273 17.2792 10.0771 17.2031 10.0424C17.1271 10.0077 17.0445 9.98917 16.9607 9.98811H12.4445Z" fill="#9698A2"/>
<path fill-rule="evenodd" clip-rule="evenodd" d="M5.10414 27.7585C5.06534 28.2911 5.07078 28.8259 5.1204 29.3576H24.2504C24.3004 28.8259 24.3063 28.2911 24.2679 27.7585C24.1989 26.9904 23.8408 26.2759 23.2644 25.7566C22.688 25.2374 21.9354 24.9512 21.1558 24.9549H8.2162C7.43667 24.9515 6.68426 25.2378 6.10794 25.757C5.53162 26.2762 5.17338 26.9905 5.10414 27.7585Z" fill="#F5F5F5"/>
<path d="M24.25 29.6667H5.12001C5.04196 29.6665 4.96682 29.6374 4.90926 29.5853C4.85169 29.5331 4.81583 29.4617 4.80868 29.3848C4.75734 28.8358 4.7519 28.2836 4.79243 27.7338C4.86957 26.8886 5.26369 26.1026 5.89724 25.5304C6.53079 24.9583 7.3579 24.6413 8.21582 24.642H21.1542C22.0122 24.641 22.8395 24.9579 23.4731 25.5301C24.1067 26.1024 24.5007 26.8885 24.5776 27.7338C24.6187 28.2836 24.6133 28.8358 24.5613 29.3848C24.5542 29.4617 24.5183 29.5331 24.4608 29.5853C24.4032 29.6374 24.328 29.6665 24.25 29.6667ZM5.41009 29.0484H23.9599C23.9895 28.6272 23.9895 28.2044 23.9599 27.7832C23.895 27.0934 23.5717 26.4525 23.0535 25.9864C22.5353 25.5202 21.8596 25.2626 21.1592 25.264H8.21582C7.51538 25.2626 6.8397 25.5202 6.32149 25.9864C5.80328 26.4525 5.47998 27.0934 5.41509 27.7832C5.38389 28.2043 5.38222 28.6271 5.41009 29.0484Z" fill="#9698A2"/>
<path d="M22.9785 30.1083H6.45418C6.37128 30.1083 6.29177 30.0757 6.23315 30.0177C6.17453 29.9597 6.1416 29.8811 6.1416 29.7991C6.1416 29.7171 6.17453 29.6384 6.23315 29.5805C6.29177 29.5225 6.37128 29.4899 6.45418 29.4899H22.9785C23.0614 29.4899 23.1409 29.5225 23.1995 29.5805C23.2581 29.6384 23.2911 29.7171 23.2911 29.7991C23.2911 29.8811 23.2581 29.9597 23.1995 30.0177C23.1409 30.0757 23.0614 30.1083 22.9785 30.1083Z" fill="#9698A2"/>
</g>
<defs>
<clipPath id="clip0_1006_73134">
<rect width="19.8402" height="28.792" fill="white" transform="translate(4.76514 1.31378)"/>
</clipPath>
</defs>
</svg>
