<svg width="30" height="31" viewBox="0 0 30 31" fill="none" xmlns="http://www.w3.org/2000/svg">
<g clip-path="url(#clip0_1006_73156)">
<path fill-rule="evenodd" clip-rule="evenodd" d="M16.784 13.8391C16.6659 18.8817 8.46473 17.6153 8.63559 26.9403L24.8092 27.0266C23.328 22.3641 31.6653 8.81712 16.3678 3.68047C16.3678 3.68047 14.6426 1.7982 12.1478 1.63586L12.3045 4.19452C10.7707 5.77275 2.59394 13.1833 3.59082 14.4665C5.21588 17.3009 6.88334 17.6977 7.63742 17.7119C7.75937 17.7141 7.88008 17.687 7.9894 17.6327C8.09871 17.5785 8.19344 17.4987 8.26561 17.4001C10.9634 13.8365 13.5596 16.707 16.7763 13.8391H16.784Z" fill="#F5F5F5"/>
<path d="M24.8093 27.3487L8.63576 27.2624C8.55181 27.2624 8.47122 27.2293 8.41137 27.1703C8.35153 27.1112 8.31723 27.031 8.31589 26.9468C8.21311 21.3656 11.0868 19.4112 13.3953 17.8407C14.8547 16.8474 16.0507 16.037 16.377 14.5722C15.0153 15.5256 13.7435 15.6029 12.6027 15.666C11.1369 15.751 9.8703 15.8245 8.52785 17.5985C8.42657 17.7359 8.29457 17.8475 8.14246 17.9245C7.98696 18.0019 7.81504 18.0404 7.64145 18.0365C6.74606 18.0172 5.00409 17.5534 3.33406 14.6482C2.729 13.8211 3.77983 11.9916 10.776 5.24324C11.2898 4.74723 11.7112 4.3414 11.9822 4.06956L11.8345 1.6539C11.8316 1.60835 11.8385 1.56269 11.8547 1.52003C11.8708 1.47736 11.8959 1.43866 11.9283 1.40654C11.9602 1.37405 11.9988 1.34893 12.0414 1.33291C12.084 1.31689 12.1296 1.31036 12.1749 1.31378C14.5387 1.46709 16.2164 3.05691 16.5517 3.39833C21.5451 5.09251 24.5075 7.81092 25.6058 11.703C26.5449 15.036 25.9283 18.6975 25.4324 21.6388C25.0611 23.829 24.7425 25.7319 25.1215 26.921C25.1372 26.9693 25.1412 27.0206 25.1332 27.0707C25.1252 27.1208 25.1055 27.1684 25.0757 27.2094C25.0458 27.2504 25.0067 27.2837 24.9615 27.3066C24.9163 27.3294 24.8664 27.3412 24.8158 27.341L24.8093 27.3487ZM8.95435 26.6208L24.397 26.7033C24.14 25.3827 24.4471 23.5842 24.7926 21.5331C25.3065 18.5042 25.882 15.0721 24.9815 11.8808C23.9396 8.18712 21.089 5.60527 16.2665 3.98581C16.2174 3.9671 16.1734 3.93709 16.138 3.89821C16.1226 3.88146 14.6363 2.29163 12.4987 1.99403L12.6271 4.1752C12.6298 4.22013 12.6231 4.26513 12.6074 4.30729C12.5917 4.34945 12.5673 4.38784 12.5359 4.41999C12.2674 4.69698 11.8037 5.14404 11.2166 5.70834C9.84717 7.02761 7.77891 9.02197 6.18082 10.7934C3.50877 13.7567 3.83507 14.2462 3.85049 14.272C3.85977 14.2839 3.86835 14.2964 3.87618 14.3094C5.45371 17.0587 7.04024 17.3821 7.65044 17.3937C7.72082 17.3961 7.79067 17.3806 7.85342 17.3486C7.91677 17.3167 7.97178 17.2704 8.014 17.2133C9.53758 15.2035 11.0766 15.1133 12.5655 15.0231C13.8321 14.9484 15.1412 14.8724 16.5697 13.5982C16.6326 13.5453 16.7128 13.5176 16.7949 13.5205C16.8769 13.5233 16.955 13.5565 17.0142 13.6136C17.0442 13.6445 17.0678 13.6809 17.0837 13.721C17.0996 13.761 17.1074 13.8038 17.1067 13.8468C17.0527 16.1311 15.4508 17.221 13.755 18.3741C11.5069 19.9034 8.96591 21.631 8.95435 26.6208Z" fill="#9698A2"/>
<path fill-rule="evenodd" clip-rule="evenodd" d="M6.95289 27.6695C6.91282 28.2243 6.91884 28.7815 6.97088 29.3354H26.6258C26.6775 28.7815 26.683 28.2243 26.6425 27.6695C26.5717 26.8695 26.2036 26.1253 25.6114 25.5846C25.0192 25.0438 24.246 24.746 23.4451 24.7501H10.1504C9.34955 24.7463 8.5765 25.0442 7.98433 25.5849C7.39216 26.1256 7.02405 26.8696 6.95289 27.6695Z" fill="#F5F5F5"/>
<path d="M26.6247 29.6574H6.96976C6.8894 29.6577 6.81187 29.6277 6.75261 29.5732C6.69334 29.5188 6.65666 29.444 6.64989 29.3637C6.59612 28.7919 6.5901 28.2166 6.6319 27.6438C6.7109 26.763 7.11593 25.9438 7.7672 25.3477C8.41847 24.7515 9.26876 24.4216 10.1505 24.4229H23.444C24.3256 24.4216 25.1757 24.7516 25.8268 25.3478C26.4778 25.944 26.8826 26.7631 26.9613 27.6438C27.0035 28.2165 26.9979 28.7919 26.9446 29.3637C26.9372 29.4438 26.9004 29.5183 26.8413 29.5726C26.7821 29.6269 26.7049 29.6571 26.6247 29.6574ZM7.2678 29.0133H26.3293C26.3602 28.5745 26.3602 28.1341 26.3293 27.6953C26.2626 26.9768 25.9303 26.3092 25.3979 25.8239C24.8654 25.3385 24.1712 25.0704 23.4517 25.0722H10.1518C9.4321 25.0698 8.73757 25.3377 8.20498 25.8232C7.6724 26.3087 7.34035 26.9766 7.27422 27.6953C7.24107 28.1339 7.23892 28.5743 7.2678 29.0133Z" fill="#9698A2"/>
<path fill-rule="evenodd" clip-rule="evenodd" d="M12.1982 8.98977C12.4976 9.04388 13.5445 9.19461 13.8374 8.86866C14.517 8.11755 12.6402 7.54424 12.1982 8.98977Z" fill="#9698A2"/>
<path fill-rule="evenodd" clip-rule="evenodd" d="M5.18886 13.3882C5.40888 13.1044 5.69829 12.8825 6.02901 12.744C6.06216 12.7293 6.09825 12.7225 6.13446 12.7241C6.17066 12.7258 6.20601 12.7358 6.23772 12.7533C6.26944 12.7709 6.29667 12.7956 6.31729 12.8255C6.33791 12.8554 6.35136 12.8897 6.35659 12.9257C6.36542 12.9841 6.3547 13.0439 6.32612 13.0956C6.29754 13.1474 6.2527 13.1882 6.19858 13.2117C6.01696 13.2799 5.85623 13.3945 5.73226 13.5441L5.71299 13.5737C5.62435 13.7206 5.54598 13.9074 5.38797 13.9692C5.18757 14.0478 4.96533 13.919 5.02571 13.7115C5.06187 13.5954 5.117 13.4862 5.18886 13.3882Z" fill="#9698A2"/>
<path fill-rule="evenodd" clip-rule="evenodd" d="M16.7969 13.8146C17.1463 13.4281 17.2748 13.2993 17.4032 12.9128L16.7969 13.8146Z" fill="#F5F5F5"/>
<path d="M16.7971 14.1328C16.7349 14.1328 16.674 14.1147 16.6219 14.0806C16.5698 14.0466 16.5287 13.9981 16.5036 13.9411C16.4784 13.8841 16.4703 13.821 16.4802 13.7594C16.4901 13.6978 16.5176 13.6405 16.5594 13.5943L16.6121 13.5351C16.9088 13.2065 16.9975 13.1073 17.0989 12.8058C17.111 12.7643 17.1314 12.7255 17.1588 12.692C17.1861 12.6585 17.2199 12.6308 17.2582 12.6107C17.2965 12.5906 17.3384 12.5785 17.3815 12.575C17.4245 12.5715 17.4678 12.5768 17.5088 12.5905C17.5498 12.6042 17.5876 12.626 17.62 12.6547C17.6523 12.6834 17.6786 12.7184 17.6972 12.7575C17.7158 12.7966 17.7263 12.8391 17.7281 12.8824C17.73 12.9256 17.7231 12.9689 17.7079 13.0094C17.5653 13.4397 17.406 13.6162 17.0887 13.9679L17.036 14.0259C17.0058 14.0595 16.969 14.0864 16.9278 14.1048C16.8867 14.1232 16.8421 14.1328 16.7971 14.1328Z" fill="#9698A2"/>
<path d="M25.2857 30.1084H8.30798C8.2228 30.1084 8.14111 30.0744 8.08088 30.014C8.02065 29.9536 7.98682 29.8717 7.98682 29.7863C7.98682 29.7009 8.02065 29.6189 8.08088 29.5585C8.14111 29.4981 8.2228 29.4642 8.30798 29.4642H25.2857C25.3709 29.4642 25.4526 29.4981 25.5128 29.5585C25.5731 29.6189 25.6069 29.7009 25.6069 29.7863C25.6069 29.8717 25.5731 29.9536 25.5128 30.014C25.4526 30.0744 25.3709 30.1084 25.2857 30.1084Z" fill="#9698A2"/>
</g>
<defs>
<clipPath id="clip0_1006_73156">
<rect width="23.8082" height="28.792" fill="white" transform="translate(3.18115 1.31378)"/>
</clipPath>
</defs>
</svg>
