<svg width="30" height="30" viewBox="0 0 30 30" fill="none" xmlns="http://www.w3.org/2000/svg">
<g clip-path="url(#clip0_1006_73186)">
<path d="M14.842 12.5594C17.5469 12.5594 19.7396 10.4144 19.7396 7.7685C19.7396 5.12258 17.5469 2.97763 14.842 2.97763C12.1371 2.97763 9.94434 5.12258 9.94434 7.7685C9.94434 10.4144 12.1371 12.5594 14.842 12.5594Z" fill="#F5F5F5"/>
<path d="M14.8417 12.9117C13.8019 12.9117 12.7853 12.61 11.9207 12.0449C11.0561 11.4797 10.3822 10.6765 9.98421 9.73671C9.58626 8.79692 9.48214 7.76281 9.68501 6.76513C9.88788 5.76746 10.3886 4.85104 11.1239 4.13176C11.8593 3.41248 12.7961 2.92264 13.816 2.72419C14.8359 2.52574 15.8931 2.62759 16.8538 3.01687C17.8145 3.40614 18.6357 4.06535 19.2134 4.91113C19.7911 5.75692 20.0995 6.75129 20.0995 7.76851C20.098 9.1321 19.5435 10.4394 18.5578 11.4036C17.5722 12.3678 16.2357 12.9102 14.8417 12.9117ZM14.8417 3.32991C13.9443 3.32991 13.067 3.59023 12.3208 4.07795C11.5746 4.56567 10.9931 5.25888 10.6496 6.06993C10.3062 6.88098 10.2163 7.77344 10.3914 8.63444C10.5665 9.49545 10.9987 10.2863 11.6332 10.9071C12.2678 11.5278 13.0763 11.9506 13.9565 12.1218C14.8367 12.2931 15.749 12.2052 16.5782 11.8692C17.4073 11.5333 18.116 10.9644 18.6145 10.2345C19.1131 9.50454 19.3792 8.64639 19.3792 7.76851C19.3781 6.59167 18.8997 5.46334 18.049 4.63118C17.1983 3.79902 16.0448 3.33103 14.8417 3.32991Z" fill="#9698A2"/>
<path fill-rule="evenodd" clip-rule="evenodd" d="M21.5489 23.5657C18.9791 22.3328 17.5991 17.4292 17.2894 14.0854H12.4652C12.157 17.4292 10.7756 22.3328 8.20719 23.5657C5.27581 24.9748 4.43457 24.8015 4.43457 28.9752H25.3215C25.3201 24.8015 24.4803 24.972 21.5489 23.5657Z" fill="#F5F5F5"/>
<path d="M25.32 29.3275H4.4402C4.34469 29.3275 4.25309 29.2903 4.18555 29.2243C4.11802 29.1582 4.08008 29.0686 4.08008 28.9752C4.08008 25.2313 4.75998 24.755 7.11661 23.6841C7.3975 23.5559 7.71441 23.4121 8.05436 23.2487C9.12176 22.7372 10.0898 21.4366 10.8532 19.4907C11.5167 17.741 11.94 15.913 12.1122 14.0544C12.1204 13.9668 12.1617 13.8854 12.2281 13.826C12.2944 13.7666 12.381 13.7335 12.4709 13.7332H17.2893C17.3794 13.7328 17.4663 13.7657 17.5328 13.8252C17.5992 13.8848 17.6404 13.9666 17.648 14.0544C17.8213 15.9129 18.2451 17.7408 18.9084 19.4907C19.6704 21.4366 20.637 22.7315 21.7072 23.2487C22.0457 23.4121 22.3641 23.5559 22.645 23.6841C25.0002 24.755 25.6801 25.2341 25.6801 28.9752C25.6801 29.0686 25.6421 29.1582 25.5746 29.2243C25.5071 29.2903 25.4155 29.3275 25.32 29.3275ZM4.8032 28.6229H24.9584C24.9224 25.4962 24.3822 25.251 22.341 24.3224C22.0529 24.1942 21.736 24.0476 21.3903 23.8814C18.5569 22.523 17.2835 17.2897 16.9637 14.4405H12.7964C12.4781 17.2925 11.2047 22.5258 8.37127 23.8814C8.02555 24.0476 7.70433 24.1942 7.42055 24.3224C5.37795 25.251 4.83777 25.4962 4.8032 28.6229Z" fill="#9698A2"/>
<path fill-rule="evenodd" clip-rule="evenodd" d="M17.4433 12.2776H12.2402C12.0937 12.2789 11.9491 12.3101 11.8156 12.3694C11.6822 12.4286 11.5628 12.5144 11.4653 12.6214C11.2583 12.851 11.144 13.1466 11.144 13.4527C11.144 13.7589 11.2583 14.0545 11.4653 14.2841C11.5626 14.3913 11.6819 14.4774 11.8154 14.5366C11.9489 14.5958 12.0937 14.6269 12.2402 14.6279H17.4433C17.5899 14.6269 17.7346 14.5958 17.8681 14.5366C18.0016 14.4774 18.1209 14.3913 18.2182 14.2841C18.4252 14.0545 18.5395 13.7589 18.5395 13.4527C18.5395 13.1466 18.4252 12.851 18.2182 12.6214C18.1207 12.5144 18.0013 12.4286 17.8679 12.3694C17.7344 12.3101 17.5898 12.2789 17.4433 12.2776Z" fill="#F5F5F5"/>
<path d="M17.4434 14.9802H12.2404C12.0439 14.9786 11.8498 14.937 11.6705 14.8582C11.4912 14.7794 11.3307 14.665 11.199 14.5222C10.9317 14.2276 10.7842 13.8473 10.7842 13.4534C10.7842 13.0596 10.9317 12.6793 11.199 12.3847C11.3306 12.2417 11.4911 12.1271 11.6704 12.048C11.8497 11.969 12.0438 11.9272 12.2404 11.9253H17.4434C17.6401 11.9272 17.8342 11.969 18.0135 12.048C18.1927 12.1271 18.3533 12.2417 18.4849 12.3847C18.7521 12.6793 18.8997 13.0596 18.8997 13.4534C18.8997 13.8473 18.7521 14.2276 18.4849 14.5222C18.3532 14.665 18.1926 14.7794 18.0133 14.8582C17.8341 14.937 17.64 14.9786 17.4434 14.9802ZM12.2404 12.6298C12.1439 12.631 12.0488 12.6521 11.9612 12.6917C11.8736 12.7313 11.7954 12.7884 11.7319 12.8595C11.5851 13.0241 11.5042 13.235 11.5042 13.4534C11.5042 13.6718 11.5851 13.8828 11.7319 14.0474C11.7955 14.1182 11.8737 14.1752 11.9613 14.2145C12.0489 14.2539 12.144 14.2747 12.2404 14.2756H17.4434C17.5398 14.2747 17.6349 14.2539 17.7226 14.2145C17.8102 14.1752 17.8883 14.1182 17.9519 14.0474C18.0987 13.8828 18.1796 13.6718 18.1796 13.4534C18.1796 13.235 18.0987 13.0241 17.9519 12.8595C17.8884 12.7884 17.8103 12.7313 17.7227 12.6917C17.6351 12.6521 17.5399 12.631 17.4434 12.6298H12.2404Z" fill="#9698A2"/>
<path d="M24.0222 29.8206H5.66188C5.56637 29.8206 5.47477 29.7835 5.40724 29.7174C5.3397 29.6514 5.30176 29.5618 5.30176 29.4684C5.30176 29.3749 5.3397 29.2853 5.40724 29.2193C5.47477 29.1532 5.56637 29.1161 5.66188 29.1161H24.0222C24.1177 29.1161 24.2093 29.1532 24.2769 29.2193C24.3444 29.2853 24.3824 29.3749 24.3824 29.4684C24.3824 29.5618 24.3444 29.6514 24.2769 29.7174C24.2093 29.7835 24.1177 29.8206 24.0222 29.8206Z" fill="#9698A2"/>
</g>
<defs>
<clipPath id="clip0_1006_73186">
<rect width="21.6" height="27.1924" fill="white" transform="translate(4.08008 2.62537)"/>
</clipPath>
</defs>
</svg>
