<svg width="31" height="31" viewBox="0 0 31 31" fill="none" xmlns="http://www.w3.org/2000/svg">
<path fill-rule="evenodd" clip-rule="evenodd" d="M15.4839 1.62866C15.0227 1.62891 14.5719 1.76788 14.1885 2.02801C13.8051 2.28814 13.5064 2.65774 13.33 3.09009C13.1537 3.52244 13.1077 3.99812 13.1978 4.457C13.2879 4.91587 13.5102 5.33733 13.8364 5.6681C14.1626 5.99886 14.5782 6.22407 15.0306 6.31526C15.483 6.40645 15.9519 6.35953 16.378 6.18041C16.8041 6.0013 17.1683 5.69805 17.4245 5.30899C17.6807 4.91993 17.8175 4.46254 17.8175 3.99465C17.8175 3.68384 17.7571 3.37607 17.6398 3.08894C17.5226 2.8018 17.3506 2.54092 17.1339 2.3212C16.9172 2.10148 16.66 1.92723 16.3769 1.8084C16.0937 1.68957 15.7903 1.6285 15.4839 1.62866Z" fill="#F5F5F5"/>
<path d="M15.4842 6.673C14.9619 6.67201 14.4517 6.51398 14.0179 6.21888C13.5841 5.92378 13.2463 5.50486 13.0472 5.01507C12.8481 4.52527 12.7965 3.98659 12.8991 3.46709C13.0017 2.9476 13.2538 2.47061 13.6235 2.09641C13.9933 1.72221 14.4641 1.4676 14.9764 1.36475C15.4887 1.26191 16.0196 1.31544 16.502 1.5186C16.9844 1.72175 17.3965 2.0654 17.6864 2.50611C17.9763 2.94683 18.1309 3.46483 18.1307 3.99464C18.1297 4.70577 17.8503 5.38739 17.3541 5.88964C16.8578 6.3919 16.1852 6.67367 15.4842 6.673ZM15.4842 1.94228C15.0843 1.94327 14.6936 2.06449 14.3615 2.2906C14.0295 2.51672 13.7709 2.8376 13.6186 3.21271C13.4662 3.58782 13.4268 4.00032 13.5055 4.39811C13.5841 4.79589 13.7772 5.16112 14.0603 5.44765C14.3434 5.73417 14.7039 5.92914 15.0963 6.00793C15.4886 6.08671 15.8951 6.04578 16.2645 5.89029C16.6339 5.73481 16.9496 5.47175 17.1717 5.13435C17.3938 4.79695 17.5123 4.40035 17.5123 3.99464C17.512 3.72479 17.4593 3.45765 17.3572 3.20847C17.2551 2.95929 17.1056 2.73294 16.9173 2.54237C16.7289 2.35179 16.5055 2.2007 16.2596 2.09774C16.0137 1.99478 15.7502 1.94195 15.4842 1.94228Z" fill="#9698A2"/>
<path fill-rule="evenodd" clip-rule="evenodd" d="M23.6462 3.99463C23.2616 3.99463 22.8857 4.11032 22.566 4.32707C22.2463 4.54382 21.9971 4.85189 21.85 5.21231C21.7029 5.57274 21.6645 5.96932 21.7396 6.3519C21.8147 6.73448 22 7.08586 22.272 7.36161C22.544 7.63736 22.8905 7.82508 23.2677 7.90104C23.6449 7.97699 24.0358 7.93775 24.391 7.7883C24.7462 7.63885 25.0497 7.38589 25.2632 7.06142C25.4766 6.73694 25.5904 6.35554 25.5902 5.96545C25.5904 5.70648 25.5402 5.45003 25.4425 5.21076C25.3449 4.9715 25.2017 4.75411 25.0211 4.57106C24.8405 4.388 24.6261 4.24286 24.3902 4.14395C24.1543 4.04504 23.9015 3.9943 23.6462 3.99463Z" fill="#F5F5F5"/>
<path d="M23.6458 8.25114C23.2001 8.25114 22.7645 8.11709 22.394 7.86593C22.0234 7.61478 21.7346 7.2578 21.5641 6.84015C21.3936 6.42249 21.3489 5.96291 21.4359 5.51953C21.5228 5.07615 21.7374 4.66888 22.0525 4.34921C22.3676 4.02955 22.7691 3.81186 23.2062 3.72367C23.6433 3.63547 24.0963 3.68074 24.508 3.85374C24.9197 4.02674 25.2716 4.3197 25.5192 4.69558C25.7668 5.07146 25.899 5.51338 25.899 5.96545C25.8986 6.57155 25.6611 7.15273 25.2387 7.58131C24.8162 8.00989 24.2433 8.25081 23.6458 8.25114ZM23.6458 4.30825C23.3224 4.30825 23.0062 4.40555 22.7374 4.58784C22.4685 4.77013 22.2589 5.02922 22.1352 5.33233C22.0115 5.63545 21.9792 5.96897 22.0424 6.29071C22.1056 6.61245 22.2614 6.90796 22.4902 7.13984C22.7189 7.37173 23.0104 7.52959 23.3276 7.59344C23.6448 7.65729 23.9735 7.62426 24.2723 7.49855C24.571 7.37283 24.8262 7.16007 25.0057 6.88717C25.1852 6.61428 25.2809 6.29351 25.2806 5.96545C25.2803 5.52582 25.1079 5.10431 24.8014 4.79356C24.4948 4.48281 24.0791 4.30825 23.6458 4.30825Z" fill="#9698A2"/>
<path fill-rule="evenodd" clip-rule="evenodd" d="M7.32319 3.99463C6.93859 3.99438 6.56257 4.10986 6.24268 4.32646C5.9228 4.54306 5.67344 4.85104 5.52615 5.21144C5.37886 5.57184 5.34025 5.96846 5.41522 6.35113C5.4902 6.73379 5.67537 7.08529 5.94732 7.36117C6.21927 7.63704 6.56578 7.82489 6.943 7.90094C7.32022 7.97699 7.7112 7.93784 8.06647 7.78842C8.42174 7.639 8.72535 7.38604 8.93886 7.06154C9.15238 6.73705 9.26622 6.35559 9.26598 5.96545C9.26598 5.44275 9.06129 4.94147 8.69695 4.57187C8.3326 4.20227 7.83845 3.99463 7.32319 3.99463Z" fill="#F5F5F5"/>
<path d="M7.32204 8.25114C6.8764 8.25114 6.44077 8.11709 6.07023 7.86593C5.6997 7.61478 5.4109 7.2578 5.24036 6.84015C5.06982 6.42249 5.0252 5.96291 5.11214 5.51953C5.19908 5.07615 5.41368 4.66888 5.72879 4.34921C6.04391 4.02955 6.44539 3.81186 6.88246 3.72367C7.31954 3.63547 7.77258 3.68074 8.18429 3.85374C8.59601 4.02674 8.94791 4.3197 9.19549 4.69558C9.44308 5.07146 9.57522 5.51338 9.57522 5.96545C9.5749 6.57155 9.3374 7.15273 8.91492 7.58131C8.49243 8.00989 7.91952 8.25081 7.32204 8.25114ZM7.32204 4.30825C6.99864 4.30825 6.68251 4.40555 6.41363 4.58784C6.14475 4.77013 5.93521 5.02922 5.81151 5.33233C5.6878 5.63545 5.6555 5.96897 5.71868 6.29071C5.78186 6.61245 5.93769 6.90796 6.16645 7.13984C6.39522 7.37173 6.68664 7.52959 7.00385 7.59344C7.32106 7.65729 7.64982 7.62426 7.94853 7.49855C8.24724 7.37283 8.50248 7.16007 8.68197 6.88717C8.86147 6.61428 8.95714 6.29351 8.9569 5.96545C8.95657 5.52582 8.78418 5.10431 8.47762 4.79356C8.17106 4.48281 7.75541 4.30825 7.32204 4.30825Z" fill="#9698A2"/>
<path fill-rule="evenodd" clip-rule="evenodd" d="M28.6988 7.93754C28.3912 7.93679 28.0903 8.02864 27.8342 8.20146C27.5781 8.37428 27.3782 8.6203 27.26 8.90837C27.1418 9.19645 27.1105 9.51363 27.17 9.81977C27.2296 10.1259 27.3774 10.4072 27.5946 10.6281C27.8119 10.8491 28.0888 10.9996 28.3905 11.0608C28.6921 11.1219 29.0049 11.0909 29.2891 10.9717C29.5734 10.8524 29.8164 10.6503 29.9873 10.3909C30.1583 10.1315 30.2496 9.82648 30.2496 9.51444C30.2497 9.30721 30.2096 9.10197 30.1315 8.9105C30.0533 8.71902 29.9387 8.54507 29.7942 8.39859C29.6497 8.25211 29.4781 8.13599 29.2893 8.05687C29.1005 7.97776 28.8982 7.9372 28.6939 7.93754H28.6988Z" fill="#F5F5F5"/>
<path d="M28.6988 11.405C28.3303 11.4047 27.9701 11.2936 27.6638 11.0857C27.3575 10.8779 27.1188 10.5825 26.9779 10.237C26.8371 9.89157 26.8003 9.51148 26.8724 9.14484C26.9444 8.7782 27.122 8.44145 27.3827 8.17718C27.6434 7.91291 27.9755 7.73298 28.3369 7.66014C28.6984 7.58729 29.0731 7.6248 29.4135 7.76793C29.754 7.91106 30.045 8.15337 30.2497 8.46424C30.4544 8.77511 30.5637 9.14057 30.5637 9.51443C30.5634 10.0159 30.3668 10.4968 30.0171 10.8513C29.6674 11.2058 29.1932 11.405 28.6988 11.405ZM28.6988 8.25115C28.4526 8.2514 28.2119 8.3257 28.0073 8.46466C27.8027 8.60362 27.6433 8.80101 27.5492 9.03186C27.4551 9.26272 27.4306 9.51668 27.4788 9.76165C27.527 10.0066 27.6457 10.2316 27.8199 10.4081C27.9941 10.5847 28.216 10.7049 28.4576 10.7535C28.6991 10.8022 28.9494 10.7771 29.1769 10.6814C29.4044 10.5858 29.5988 10.4239 29.7356 10.2161C29.8724 10.0084 29.9454 9.76423 29.9454 9.51443C29.9454 9.34843 29.9131 9.18406 29.8505 9.03071C29.7878 8.87736 29.696 8.73804 29.5802 8.62071C29.4644 8.50339 29.327 8.41036 29.1758 8.34695C29.0245 8.28354 28.8625 8.25099 28.6988 8.25115Z" fill="#9698A2"/>
<path fill-rule="evenodd" clip-rule="evenodd" d="M2.2703 7.93753C1.96285 7.93753 1.66231 8.03001 1.40668 8.20329C1.15104 8.37656 0.951803 8.62284 0.834148 8.91098C0.716494 9.19912 0.68571 9.51619 0.74569 9.82207C0.80567 10.128 0.953719 10.4089 1.17112 10.6295C1.38851 10.85 1.6655 11.0002 1.96703 11.061C2.26857 11.1219 2.58113 11.0907 2.86517 10.9713C3.14921 10.852 3.39199 10.6498 3.5628 10.3905C3.73361 10.1312 3.82477 9.82632 3.82477 9.51444C3.82477 9.30735 3.78457 9.1023 3.70645 8.91098C3.62833 8.71966 3.51382 8.54582 3.36948 8.39939C3.22513 8.25297 3.05377 8.13681 2.86517 8.05757C2.67657 7.97832 2.47443 7.93753 2.2703 7.93753Z" fill="#F5F5F5"/>
<path d="M2.27038 11.405C1.90179 11.405 1.54147 11.2941 1.235 11.0864C0.928522 10.8786 0.689655 10.5834 0.5486 10.2379C0.407546 9.89246 0.370639 9.51234 0.442548 9.14561C0.514457 8.77888 0.691952 8.44202 0.952587 8.17763C1.21322 7.91323 1.54529 7.73317 1.9068 7.66023C2.26831 7.58728 2.64303 7.62472 2.98356 7.76781C3.3241 7.9109 3.61516 8.15321 3.81994 8.46411C4.02472 8.77501 4.13402 9.14052 4.13402 9.51443C4.13337 10.0156 3.93681 10.4961 3.58745 10.8505C3.23809 11.2049 2.76445 11.4043 2.27038 11.405ZM2.27038 8.25115C2.02408 8.25115 1.78331 8.32524 1.57852 8.46405C1.37373 8.60286 1.21412 8.80016 1.11986 9.031C1.02561 9.26183 1.00094 9.51583 1.049 9.76089C1.09705 10.0059 1.21565 10.231 1.38981 10.4077C1.56397 10.5844 1.78586 10.7047 2.02743 10.7534C2.269 10.8022 2.51939 10.7772 2.74694 10.6816C2.97449 10.5859 3.16898 10.424 3.30582 10.2163C3.44266 10.0085 3.51569 9.76429 3.51569 9.51443C3.51536 9.17949 3.38406 8.85836 3.15059 8.62152C2.91712 8.38469 2.60056 8.25148 2.27038 8.25115Z" fill="#9698A2"/>
<path fill-rule="evenodd" clip-rule="evenodd" d="M15.4559 9.51443C10.2038 9.51443 7.71191 13.5464 7.71191 16.6111H23.2592C23.2592 13.5464 20.7079 9.51443 15.4571 9.51443H15.4559Z" fill="#F5F5F5"/>
<path d="M23.2587 16.9248H7.71151C7.62951 16.9248 7.55088 16.8917 7.4929 16.8329C7.43492 16.7741 7.40234 16.6943 7.40234 16.6111C7.40234 13.5338 9.90039 9.20081 15.4554 9.20081C21.0501 9.20081 23.5667 13.5338 23.5667 16.6111C23.5667 16.6941 23.5343 16.7737 23.4766 16.8325C23.4188 16.8912 23.3405 16.9244 23.2587 16.9248ZM8.03057 16.2975H22.9397C22.7752 13.5088 20.4355 9.82806 15.4567 9.82806C10.515 9.82806 8.1938 13.5088 8.03057 16.2975Z" fill="#9698A2"/>
<path fill-rule="evenodd" clip-rule="evenodd" d="M15.4855 8.72537C14.0015 8.72537 13.7146 12.9054 12.3641 13.0584C10.9902 13.2127 9.81662 9.12305 8.40683 9.54581C7.279 9.87951 7.81942 12.933 7.04651 13.357C5.98299 13.9228 4.63874 11.2708 3.04346 12.3822C8.20402 18.789 9.14512 20.6105 9.06844 25.2848H21.8988C21.8208 20.6105 22.7644 18.789 27.9225 12.3822C26.3334 11.2695 24.9892 13.9215 23.9318 13.352C23.1564 12.9342 23.6968 9.877 22.5715 9.5408C21.1617 9.12305 19.9832 13.2077 18.6142 13.0534C17.2576 12.9054 16.9719 8.72537 15.4855 8.72537Z" fill="#F5F5F5"/>
<path d="M21.8988 25.5984H9.07348C9.03244 25.5985 8.99179 25.5902 8.95397 25.5741C8.91615 25.5579 8.88193 25.5342 8.85335 25.5043C8.82424 25.475 8.80133 25.4399 8.78602 25.4013C8.77071 25.3627 8.76333 25.3213 8.76431 25.2797C8.83728 20.7635 8.05818 19.0988 2.80858 12.5817C2.78155 12.548 2.76167 12.5089 2.75018 12.4671C2.73869 12.4252 2.73584 12.3814 2.7418 12.3383C2.74775 12.2954 2.76249 12.2543 2.78507 12.2176C2.80765 12.1809 2.83756 12.1493 2.87288 12.125C3.94754 11.3723 4.94923 12.0736 5.68009 12.5867C6.2539 12.9881 6.62243 13.2227 6.89573 13.0747C7.10101 12.9643 7.18881 12.1966 7.25188 11.637C7.36813 10.6334 7.49921 9.48181 8.31541 9.2397C9.26268 8.95994 10.0034 10.0589 10.7195 11.1214C11.25 11.908 11.851 12.8012 12.3271 12.7523C12.8032 12.7034 13.1928 11.7098 13.5378 10.8367C14.0127 9.64741 14.5036 8.418 15.4818 8.418C16.46 8.418 16.951 9.64866 17.4259 10.8379C17.7746 11.7161 18.1678 12.6996 18.6365 12.7523C19.1052 12.805 19.7186 11.913 20.2442 11.1214C20.9614 10.0601 21.7022 8.9612 22.647 9.2397C23.4644 9.48307 23.5955 10.6284 23.7118 11.6383C23.7748 12.1978 23.8626 12.9643 24.0679 13.0747C24.3412 13.2227 24.7098 12.9881 25.2836 12.5854C26.0144 12.0736 27.0149 11.3723 28.0895 12.125C28.1249 12.1493 28.1548 12.1809 28.1773 12.2176C28.1999 12.2543 28.2147 12.2954 28.2206 12.3383C28.2263 12.3813 28.2233 12.4251 28.2118 12.4669C28.2003 12.5088 28.1806 12.5478 28.1538 12.5817C22.9117 19.0988 22.1326 20.7598 22.2117 25.2797C22.2122 25.3213 22.2046 25.3625 22.1893 25.4011C22.174 25.4396 22.1513 25.4747 22.1226 25.5044C22.0938 25.534 22.0596 25.5575 22.0218 25.5737C21.9841 25.5898 21.9435 25.5982 21.9025 25.5984H21.8988ZM9.38635 24.9711H21.586C21.5612 20.3508 22.741 18.3361 27.4452 12.4801C26.8875 12.2806 26.3508 12.6055 25.6434 13.1073C25.0387 13.5313 24.4068 13.9717 23.7884 13.6342C23.2938 13.3683 23.2097 12.603 23.1083 11.7161C23.0192 10.9395 22.9092 9.97358 22.49 9.84562C21.9767 9.69508 21.3362 10.6422 20.771 11.4765C20.0797 12.4989 19.4292 13.4636 18.5809 13.372C17.7325 13.2804 17.3183 12.2053 16.8644 11.0688C16.4848 10.1191 16.0544 9.04148 15.493 9.04148C14.9315 9.04148 14.5036 10.1178 14.1227 11.0688C13.6689 12.2053 13.2398 13.2779 12.4063 13.372C11.5728 13.4661 10.9062 12.5014 10.2174 11.4777C9.65223 10.641 9.01164 9.69257 8.4972 9.84687C8.07302 9.97232 7.96296 10.9383 7.87887 11.7148C7.77746 12.6018 7.68966 13.367 7.19871 13.633C6.57296 13.9717 5.94597 13.5313 5.34372 13.1073C4.63636 12.6055 4.09965 12.2856 3.54192 12.4801C8.23008 18.3373 9.40985 20.3508 9.38635 24.9711Z" fill="#9698A2"/>
<path fill-rule="evenodd" clip-rule="evenodd" d="M6.01154 27.731C5.97255 28.2712 5.97793 28.8138 6.02762 29.3531H24.9485C24.9981 28.8138 25.0035 28.2712 24.9645 27.731C24.8963 26.952 24.542 26.2274 23.9719 25.7008C23.4018 25.1743 22.6575 24.8843 21.8865 24.8883H9.08958C8.31868 24.8846 7.57451 25.1747 7.00445 25.7012C6.4344 26.2276 6.08004 26.9521 6.01154 27.731Z" fill="#F5F5F5"/>
<path d="M24.9468 29.6667H6.02594C5.94858 29.667 5.87395 29.6377 5.8169 29.5847C5.75984 29.5317 5.72454 29.4589 5.71802 29.3807C5.66626 28.8239 5.66046 28.2637 5.7007 27.7059C5.77702 26.8484 6.16701 26.0509 6.79389 25.4705C7.42078 24.8901 8.23915 24.5687 9.0879 24.5697H21.8848C22.7335 24.5684 23.5519 24.8897 24.1786 25.4703C24.8054 26.0508 25.195 26.8484 25.2708 27.7059C25.3115 28.2637 25.3061 28.8239 25.2547 29.3807C25.2479 29.4588 25.2125 29.5314 25.1555 29.5844C25.0985 29.6373 25.0241 29.6667 24.9468 29.6667ZM6.31408 29.0395H24.6599C24.6897 28.6122 24.6897 28.1834 24.6599 27.7561C24.5957 27.0565 24.2759 26.4065 23.7633 25.9339C23.2507 25.4612 22.5824 25.2002 21.8898 25.2019H9.08914C8.39631 25.1996 7.72772 25.4605 7.21503 25.9332C6.70233 26.4059 6.38269 27.0562 6.31903 27.7561C6.28694 28.1832 6.28529 28.6121 6.31408 29.0395Z" fill="#9698A2"/>
<path d="M23.6582 30.1058H7.31454C7.23254 30.1058 7.1539 30.0727 7.09592 30.0139C7.03794 29.9551 7.00537 29.8753 7.00537 29.7922C7.00537 29.709 7.03794 29.6292 7.09592 29.5704C7.1539 29.5116 7.23254 29.4785 7.31454 29.4785H23.6582C23.7402 29.4785 23.8188 29.5116 23.8768 29.5704C23.9348 29.6292 23.9673 29.709 23.9673 29.7922C23.9673 29.8753 23.9348 29.9551 23.8768 30.0139C23.8188 30.0727 23.7402 30.1058 23.6582 30.1058Z" fill="#9698A2"/>
</svg>
