<svg width="29" height="31" viewBox="0 0 29 31" fill="none" xmlns="http://www.w3.org/2000/svg">
<g clip-path="url(#clip0_1006_73169)">
<path d="M9.12907 11.2045L6.70264 25.0682H14.2849H14.3018H21.8841L19.4577 11.2045H9.12907Z" fill="#F5F5F5"/>
<path d="M21.8831 25.4073H6.70292C6.6546 25.4075 6.60684 25.3965 6.56312 25.375C6.5194 25.3535 6.48081 25.3222 6.45017 25.2832C6.41953 25.2442 6.39761 25.1986 6.38599 25.1497C6.37438 25.1007 6.37337 25.0497 6.38303 25.0004L8.80947 11.1367C8.82316 11.0586 8.86268 10.988 8.92113 10.9372C8.97958 10.8864 9.05327 10.8586 9.12935 10.8586H19.458C19.534 10.8588 19.6075 10.8868 19.6659 10.9375C19.7243 10.9883 19.7639 11.0587 19.7778 11.1367L22.203 25.0004C22.2119 25.0492 22.2102 25.0996 22.1981 25.1477C22.1859 25.1958 22.1636 25.2405 22.1328 25.2784C22.103 25.3179 22.0651 25.35 22.0219 25.3723C21.9787 25.3946 21.9313 25.4065 21.8831 25.4073ZM7.09302 24.7291H21.4943L19.1862 11.5436H9.39982L7.09302 24.7291Z" fill="#9698A2"/>
<path d="M19.1616 4.05225L18.7715 5.4222L16.0811 5.34624L15.9095 4.05225H12.6742L12.5013 5.34624L9.81219 5.4222L9.42209 4.05225H6.4248C6.48982 9.53885 7.70044 11.2547 9.13081 11.2547C10.8928 11.2208 12.9733 11.2031 14.2945 11.2031C15.6156 11.2031 17.6975 11.2208 19.4594 11.2547C20.8898 11.2547 22.0991 9.53885 22.1628 4.05225H19.1616Z" fill="#F5F5F5"/>
<path d="M19.458 11.5938C17.6376 11.5585 15.5778 11.5422 14.323 11.5422H14.2632C13.0084 11.5422 10.9473 11.5585 9.13595 11.5938C7.17763 11.5938 6.15947 9.05732 6.09965 4.0563C6.09896 4.01138 6.10687 3.96677 6.12291 3.92507C6.13895 3.88338 6.16281 3.84544 6.19308 3.81349C6.22336 3.78153 6.25944 3.75619 6.29922 3.73896C6.33899 3.72173 6.38167 3.71295 6.42474 3.71314H9.42462C9.49479 3.71305 9.56311 3.73665 9.61936 3.78041C9.67561 3.82418 9.71678 3.88575 9.7367 3.95593L10.0527 5.07631L12.2178 5.01527L12.3478 4.00476C12.359 3.92387 12.3978 3.84989 12.457 3.79635C12.5162 3.7428 12.5919 3.71327 12.6703 3.71314H15.9094C15.9876 3.71331 16.0632 3.7429 16.1222 3.79646C16.1812 3.85003 16.2197 3.92398 16.2306 4.00476L16.3606 5.01527L18.5244 5.07631L18.8417 3.95593C18.8616 3.88597 18.9025 3.82456 18.9585 3.78082C19.0145 3.73708 19.0825 3.71334 19.1525 3.71314H22.1524C22.1954 3.71295 22.2381 3.72173 22.2779 3.73896C22.3177 3.75619 22.3537 3.78153 22.384 3.81349C22.4143 3.84544 22.4381 3.88338 22.4542 3.92507C22.4702 3.96677 22.4781 4.01138 22.4774 4.0563C22.428 9.05732 21.4086 11.5938 19.458 11.5938ZM14.323 10.864C15.5817 10.864 17.648 10.8803 19.4633 10.9156C21.3709 10.9156 21.7727 6.98204 21.8312 4.39133H19.4034L19.0849 5.5185C19.0646 5.59003 19.0222 5.6526 18.9644 5.69649C18.9066 5.74038 18.8365 5.76316 18.765 5.76129L16.0759 5.68533C15.9989 5.6835 15.9251 5.65314 15.8677 5.5997C15.8103 5.54626 15.773 5.47323 15.7625 5.39371L15.6324 4.39133H12.9576L12.8276 5.39371C12.8168 5.47357 12.779 5.54681 12.7211 5.60025C12.6632 5.6537 12.5889 5.68387 12.5116 5.68533L9.82253 5.76129C9.75096 5.76278 9.68087 5.73988 9.62291 5.69606C9.56495 5.65225 9.52227 5.5899 9.50134 5.5185L9.18276 4.39133H6.75632C6.81354 6.97797 7.21664 10.9156 9.12944 10.9156C10.9395 10.8803 13.0058 10.864 14.2632 10.864H14.323Z" fill="#9698A2"/>
<path fill-rule="evenodd" clip-rule="evenodd" d="M4.31943 27.5409C4.2782 28.125 4.28429 28.7116 4.33763 29.2947H24.2328C24.2858 28.7116 24.2914 28.1249 24.2497 27.5409C24.178 26.6985 23.8055 25.9151 23.206 25.3458C22.6065 24.7765 21.8239 24.4629 21.0132 24.4673H7.55727C6.74637 24.4626 5.96339 24.776 5.36364 25.3453C4.76389 25.9146 4.39118 26.6983 4.31943 27.5409Z" fill="#F5F5F5"/>
<path d="M24.2313 29.6338H4.33605C4.25471 29.6341 4.17623 29.6025 4.11624 29.5452C4.05624 29.4878 4.01913 29.4091 4.01227 29.3245C3.95849 28.7225 3.9524 28.1168 3.99406 27.5138C4.07431 26.5866 4.48438 25.7244 5.14355 25.0968C5.80272 24.4692 6.66323 24.1217 7.55569 24.1228H21.0116C21.9041 24.1217 22.7646 24.4692 23.4238 25.0968C24.0829 25.7244 24.493 26.5866 24.5733 27.5138C24.6156 28.1168 24.6095 28.7225 24.555 29.3245C24.5482 29.4091 24.5111 29.4878 24.4511 29.5452C24.3911 29.6025 24.3126 29.6341 24.2313 29.6338ZM4.63903 28.9556H23.9296C23.9616 28.4937 23.9616 28.0299 23.9296 27.568C23.8624 26.8114 23.5262 26.1085 22.9871 25.5974C22.4481 25.0863 21.7452 24.8042 21.0168 24.8064H7.557C6.82866 24.8045 6.12596 25.0868 5.58699 25.5978C5.04802 26.1088 4.71174 26.8115 4.64423 27.568C4.61113 28.0298 4.6094 28.4935 4.63903 28.9556Z" fill="#9698A2"/>
<path d="M9.12907 11.2045L6.70264 25.0682H14.2849H14.3018H21.8841L19.4577 11.2045H9.12907Z" fill="#F5F5F5"/>
<path d="M21.8831 25.4073H6.70292C6.6546 25.4075 6.60684 25.3965 6.56312 25.375C6.5194 25.3535 6.48081 25.3222 6.45017 25.2832C6.41953 25.2442 6.39761 25.1986 6.38599 25.1497C6.37438 25.1007 6.37337 25.0497 6.38303 25.0004L8.80947 11.1367C8.82316 11.0586 8.86268 10.988 8.92113 10.9372C8.97958 10.8864 9.05327 10.8586 9.12935 10.8586H19.458C19.534 10.8588 19.6075 10.8868 19.6659 10.9375C19.7243 10.9883 19.7639 11.0587 19.7778 11.1367L22.203 25.0004C22.2119 25.0492 22.2102 25.0996 22.1981 25.1477C22.1859 25.1958 22.1636 25.2405 22.1328 25.2784C22.103 25.3179 22.0651 25.35 22.0219 25.3723C21.9787 25.3946 21.9313 25.4065 21.8831 25.4073ZM7.09302 24.7291H21.4943L19.1862 11.5436H9.39982L7.09302 24.7291Z" fill="#9698A2"/>
<path d="M19.1616 4.05225L18.7715 5.4222L16.0811 5.34624L15.9095 4.05225H12.6742L12.5013 5.34624L9.81219 5.4222L9.42209 4.05225H6.4248C6.48982 9.53885 7.70044 11.2547 9.13081 11.2547C10.8928 11.2208 12.9733 11.2031 14.2945 11.2031C15.6156 11.2031 17.6975 11.2208 19.4594 11.2547C20.8898 11.2547 22.0991 9.53885 22.1628 4.05225H19.1616Z" fill="#F5F5F5"/>
<path d="M19.458 11.5938C17.6376 11.5585 15.5778 11.5422 14.323 11.5422H14.2632C13.0084 11.5422 10.9473 11.5585 9.13595 11.5938C7.17763 11.5938 6.15947 9.05732 6.09965 4.0563C6.09896 4.01138 6.10687 3.96677 6.12291 3.92507C6.13895 3.88338 6.16281 3.84544 6.19308 3.81349C6.22336 3.78153 6.25944 3.75619 6.29922 3.73896C6.33899 3.72173 6.38167 3.71295 6.42474 3.71314H9.42462C9.49479 3.71305 9.56311 3.73665 9.61936 3.78041C9.67561 3.82418 9.71678 3.88575 9.7367 3.95593L10.0527 5.07631L12.2178 5.01527L12.3478 4.00476C12.359 3.92387 12.3978 3.84989 12.457 3.79635C12.5162 3.7428 12.5919 3.71327 12.6703 3.71314H15.9094C15.9876 3.71331 16.0632 3.7429 16.1222 3.79646C16.1812 3.85003 16.2197 3.92398 16.2306 4.00476L16.3606 5.01527L18.5244 5.07631L18.8417 3.95593C18.8616 3.88597 18.9025 3.82456 18.9585 3.78082C19.0145 3.73708 19.0825 3.71334 19.1525 3.71314H22.1524C22.1954 3.71295 22.2381 3.72173 22.2779 3.73896C22.3177 3.75619 22.3537 3.78153 22.384 3.81349C22.4143 3.84544 22.4381 3.88338 22.4542 3.92507C22.4702 3.96677 22.4781 4.01138 22.4774 4.0563C22.428 9.05732 21.4086 11.5938 19.458 11.5938ZM14.323 10.864C15.5817 10.864 17.648 10.8803 19.4633 10.9156C21.3709 10.9156 21.7727 6.98204 21.8312 4.39133H19.4034L19.0849 5.5185C19.0646 5.59003 19.0222 5.6526 18.9644 5.69649C18.9066 5.74038 18.8365 5.76316 18.765 5.76129L16.0759 5.68533C15.9989 5.6835 15.9251 5.65314 15.8677 5.5997C15.8103 5.54626 15.773 5.47323 15.7625 5.39371L15.6324 4.39133H12.9576L12.8276 5.39371C12.8168 5.47357 12.779 5.54681 12.7211 5.60025C12.6632 5.6537 12.5889 5.68387 12.5116 5.68533L9.82253 5.76129C9.75096 5.76278 9.68087 5.73988 9.62291 5.69606C9.56495 5.65225 9.52227 5.5899 9.50134 5.5185L9.18276 4.39133H6.75632C6.81354 6.97797 7.21664 10.9156 9.12944 10.9156C10.9395 10.8803 13.0058 10.864 14.2632 10.864H14.323Z" fill="#9698A2"/>
<path fill-rule="evenodd" clip-rule="evenodd" d="M4.31943 27.5409C4.2782 28.125 4.28429 28.7116 4.33763 29.2947H24.2328C24.2858 28.7116 24.2914 28.1249 24.2497 27.5409C24.178 26.6985 23.8055 25.9151 23.206 25.3458C22.6065 24.7765 21.8239 24.4629 21.0132 24.4673H7.55727C6.74637 24.4626 5.96339 24.776 5.36364 25.3453C4.76389 25.9146 4.39118 26.6983 4.31943 27.5409Z" fill="#F5F5F5"/>
<path d="M24.2313 29.6338H4.33605C4.25471 29.6341 4.17623 29.6025 4.11624 29.5452C4.05624 29.4878 4.01913 29.4091 4.01227 29.3245C3.95849 28.7225 3.9524 28.1168 3.99406 27.5138C4.07431 26.5866 4.48438 25.7244 5.14355 25.0968C5.80272 24.4692 6.66323 24.1217 7.55569 24.1228H21.0116C21.9041 24.1217 22.7646 24.4692 23.4238 25.0968C24.0829 25.7244 24.493 26.5866 24.5733 27.5138C24.6156 28.1168 24.6095 28.7225 24.555 29.3245C24.5482 29.4091 24.5111 29.4878 24.4511 29.5452C24.3911 29.6025 24.3126 29.6341 24.2313 29.6338ZM4.63903 28.9556H23.9296C23.9616 28.4937 23.9616 28.0299 23.9296 27.568C23.8624 26.8114 23.5262 26.1085 22.9871 25.5974C22.4481 25.0863 21.7452 24.8042 21.0168 24.8064H7.557C6.82866 24.8045 6.12596 25.0868 5.58699 25.5978C5.04802 26.1088 4.71174 26.8115 4.64423 27.568C4.61113 28.0298 4.6094 28.4935 4.63903 28.9556Z" fill="#9698A2"/>
<path d="M22.8854 30.1085H5.70009C5.61387 30.1085 5.53118 30.0728 5.47021 30.0092C5.40925 29.9456 5.375 29.8594 5.375 29.7694C5.375 29.6795 5.40925 29.5932 5.47021 29.5296C5.53118 29.4661 5.61387 29.4303 5.70009 29.4303H22.8854C22.9716 29.4303 23.0543 29.4661 23.1153 29.5296C23.1762 29.5932 23.2105 29.6795 23.2105 29.7694C23.2105 29.8594 23.1762 29.9456 23.1153 30.0092C23.0543 30.0728 22.9716 30.1085 22.8854 30.1085Z" fill="#9698A2"/>
</g>
<defs>
<clipPath id="clip0_1006_73169">
<rect width="20.6338" height="26.3927" fill="white" transform="translate(3.96826 3.71313)"/>
</clipPath>
</defs>
</svg>
