<svg width="16" height="17" viewBox="0 0 16 17" fill="none" xmlns="http://www.w3.org/2000/svg">
<path d="M12.2247 11.4793L11.9554 11.058H11.9554L12.2247 11.4793ZM1.46286 8.92288L1.83633 9.25532L1.83653 9.25509L1.46286 8.92288ZM1.46291 8.92282L1.83658 9.25504L1.84149 9.24952L1.84623 9.24385L1.46291 8.92282ZM11.9839 11.1026L12.2532 11.5238L11.9839 11.1026ZM11.6902 7.2448L11.4265 7.66958V7.66958L11.6902 7.2448ZM13.5403 9.79445L13.1675 9.46126L13.5403 9.79445ZM13.4916 8.67531L13.8453 8.32186L13.4916 8.67531ZM6.00062 9.19539L6.49683 9.25683L6.00062 9.19539ZM7.63963 7.59814L7.58194 7.10148L7.63963 7.59814ZM6.45245 9.19591L6.94563 9.27824L6.45245 9.19591ZM4.62205 5.76334L4.18904 6.01335L4.62205 5.76334ZM1.45675 8.18447L1.0938 8.52838L1.45675 8.18447ZM7.64005 8.04908L7.71491 8.54345L7.64005 8.04908ZM14.9379 7.49893L15.299 7.84484L14.9379 7.49893ZM14.6151 7.1896L14.254 6.8437L14.6151 7.1896ZM7.09015 5.66502L7.03135 5.16849L7.09015 5.66502ZM14.2077 7.61475L14.5688 7.96065L14.2077 7.61475ZM4.40456 5.38667L4.83756 5.13665L4.40456 5.38667ZM11.6491 5.92928L12.0939 6.15759L11.6491 5.92928ZM11.9069 5.42698L11.4621 5.19867L11.9069 5.42698ZM1.67242 7.76199L1.30947 8.10589L1.67242 7.76199ZM2.59582 7.79404L2.26816 7.41638L2.59582 7.79404ZM8.63655 5.66139L8.57895 6.15806L8.63655 5.66139ZM11.2693 5.69001L11.7141 5.91832L11.2693 5.69001ZM10.4464 5.58527C9.89653 5.38519 9.30979 5.23611 8.69415 5.16472L8.57895 6.15806C9.10854 6.21948 9.61917 6.34841 10.1044 6.52499L10.4464 5.58527ZM11.7141 5.91832L11.9539 5.45112L11.0643 4.9945L10.8245 5.4617L11.7141 5.91832ZM11.4621 5.19867L11.2043 5.70097L12.0939 6.15759L12.3517 5.65529L11.4621 5.19867ZM13.3557 7.27625C13.0054 6.98899 12.615 6.70412 12.1898 6.44013L11.6623 7.2897C12.0471 7.52857 12.402 7.7874 12.7215 8.04945L13.3557 7.27625ZM14.5688 7.96065L14.9761 7.5355L14.254 6.8437L13.8467 7.26885L14.5688 7.96065ZM14.5769 7.15303L14.0969 7.65401L14.819 8.34581L15.299 7.84484L14.5769 7.15303ZM12.4941 11.9005C13.6661 11.1511 14.5079 10.2313 14.8911 9.54943L14.0194 9.05952C13.7317 9.57146 13.0177 10.3788 11.9554 11.058L12.4941 11.9005ZM7.88863 13.2721C9.73941 13.2721 11.3086 12.6586 12.4941 11.9005L11.9554 11.058C10.8982 11.734 9.51328 12.2721 7.88863 12.2721V13.2721ZM0.930408 9.61871C1.80008 10.8223 4.17934 13.2721 7.88863 13.2721V12.2721C4.64234 12.2721 2.52503 10.1182 1.74097 9.03305L0.930408 9.61871ZM1.08939 8.59043C1.06445 8.61845 1.0453 8.63996 1.02998 8.65686C1.01295 8.67565 1.00801 8.68056 1.00957 8.67903L1.71072 9.39205C1.74541 9.35794 1.79487 9.30189 1.83633 9.25532L1.08939 8.59043ZM1.08924 8.5906L1.08919 8.59066L1.83653 9.25509L1.83658 9.25504L1.08924 8.5906ZM1.07959 8.60178L1.07959 8.60178L1.84623 9.24385L1.84624 9.24385L1.07959 8.60178ZM1.8197 7.84057L1.4243 7.42327L0.698403 8.11108L1.0938 8.52838L1.8197 7.84057ZM1.02298 7.80353L1.30947 8.10589L2.03537 7.41809L1.74887 7.11573L1.02298 7.80353ZM3.71195 6.35583C3.14996 6.69861 2.66588 7.0713 2.26816 7.41638L2.92349 8.17171C3.28778 7.85566 3.72704 7.51796 4.23267 7.20956L3.71195 6.35583ZM4.63732 5.68406L4.45034 5.36024L3.58433 5.86027L3.77131 6.1841L4.63732 5.68406ZM3.97156 5.63669L4.18904 6.01335L5.05505 5.51332L4.83756 5.13665L3.97156 5.63669ZM7.03135 5.16849C6.41372 5.24163 5.83539 5.38969 5.301 5.5847L5.64382 6.5241C6.11299 6.35289 6.61577 6.22469 7.14895 6.16155L7.03135 5.16849ZM8.13925 5.07155V4.72357H7.13925V5.07155H8.13925ZM7.58639 4.72357V5.06912H8.58639V4.72357H7.58639ZM7.56518 7.55472C6.74637 7.67872 6.09387 8.30732 5.95928 9.11358L6.94563 9.27824C7.00681 8.91171 7.31072 8.60466 7.71491 8.54345L7.56518 7.55472ZM6.49683 9.25683C6.57133 8.65518 7.06505 8.16824 7.69732 8.0948L7.58194 7.10148C6.50946 7.22606 5.63775 8.05702 5.50441 9.13395L6.49683 9.25683ZM7.88863 11.8249C5.47209 11.8249 3.71314 10.5498 2.70999 9.49551L1.98554 10.1848C3.09678 11.3527 5.0999 12.8249 7.88863 12.8249V11.8249ZM11.7145 10.6813C10.7148 11.3205 9.4122 11.8249 7.88863 11.8249V12.8249C9.63828 12.8249 11.1251 12.2452 12.2532 11.5238L11.7145 10.6813ZM13.1675 9.46126C12.8219 9.84795 12.3315 10.2868 11.7145 10.6813L12.2532 11.5238C12.9484 11.0793 13.5081 10.5807 13.9131 10.1277L13.1675 9.46126ZM11.4265 7.66958C12.1087 8.09318 12.6913 8.58181 13.138 9.02876L13.8453 8.32186C13.3516 7.82788 12.7096 7.28918 11.9539 6.82001L11.4265 7.66958ZM7.88863 6.56497C9.18666 6.56497 10.4012 7.03303 11.4265 7.66958L11.9539 6.82001C10.8232 6.11795 9.42678 5.56497 7.88863 5.56497V6.56497ZM2.72943 8.9634C3.69432 8.01128 5.51375 6.56497 7.88863 6.56497V5.56497C5.10941 5.56497 3.04579 7.24634 2.02705 8.2516L2.72943 8.9634ZM9.28911 9.41849C9.28911 10.2536 8.6121 10.9306 7.77698 10.9306V11.9306C9.16439 11.9306 10.2891 10.8059 10.2891 9.41849H9.28911ZM7.77698 7.90637C8.6121 7.90637 9.28911 8.58337 9.28911 9.41849H10.2891C10.2891 8.03108 9.16439 6.90637 7.77698 6.90637V7.90637ZM6.26486 9.41849C6.26486 8.58337 6.94186 7.90637 7.77698 7.90637V6.90637C6.38957 6.90637 5.26486 8.03108 5.26486 9.41849H6.26486ZM7.77698 10.9306C6.94186 10.9306 6.26486 10.2536 6.26486 9.41849H5.26486C5.26486 10.8059 6.38957 11.9306 7.77698 11.9306V10.9306ZM9.73624 9.41849C9.73624 10.5006 8.85905 11.3778 7.77698 11.3778V12.3778C9.41134 12.3778 10.7362 11.0528 10.7362 9.41849H9.73624ZM7.77698 7.45923C8.85905 7.45923 9.73624 8.33642 9.73624 9.41849H10.7362C10.7362 7.78414 9.41134 6.45923 7.77698 6.45923V7.45923ZM5.81772 9.41849C5.81772 8.33642 6.69491 7.45923 7.77698 7.45923V6.45923C6.14263 6.45923 4.81772 7.78414 4.81772 9.41849H5.81772ZM7.77698 11.3778C6.69491 11.3778 5.81772 10.5006 5.81772 9.41849H4.81772C4.81772 11.0528 6.14263 12.3778 7.77698 12.3778V11.3778ZM13.9131 10.1277C14.3938 9.58983 14.327 8.8039 13.8453 8.32186L13.138 9.02876C13.2733 9.16412 13.2685 9.34826 13.1675 9.46126L13.9131 10.1277ZM2.70999 9.49551C2.5736 9.35217 2.57205 9.1187 2.72943 8.9634L2.02705 8.2516C1.49824 8.77341 1.45741 9.6298 1.98554 10.1848L2.70999 9.49551ZM5.50441 9.13395C5.44719 9.5961 5.82977 9.91853 6.21048 9.91853V8.91853C6.34425 8.91853 6.52371 9.03976 6.49683 9.25683L5.50441 9.13395ZM8.36282 7.80883C8.36282 7.42675 8.04033 7.04823 7.58194 7.10148L7.69732 8.0948C7.48423 8.11955 7.36282 7.94395 7.36282 7.80883H8.36282ZM5.95928 9.11358C5.96657 9.06988 5.98777 9.02652 6.02559 8.99056C6.06561 8.9525 6.13028 8.91853 6.21048 8.91853V9.91853C6.62687 9.91853 6.89361 9.58981 6.94563 9.27824L5.95928 9.11358ZM4.18904 6.01335C4.49109 6.53646 5.11968 6.71537 5.64382 6.5241L5.301 5.5847C5.18905 5.62555 5.09159 5.5766 5.05505 5.51332L4.18904 6.01335ZM1.4243 7.42327C1.5293 7.53409 1.52459 7.70906 1.41377 7.81406L0.725962 7.08817C0.435883 7.36303 0.423544 7.821 0.698403 8.11108L1.4243 7.42327ZM1.83639 9.25526C2.191 8.85688 2.19903 8.24091 1.8197 7.84057L1.0938 8.52838C1.09926 8.53413 1.10322 8.54202 1.10329 8.55417C1.10336 8.56696 1.09883 8.57982 1.08945 8.59037L1.83639 9.25526ZM1.74097 9.03305C1.82095 9.14375 1.8081 9.29628 1.71072 9.39204L1.00957 8.67903C0.754672 8.9297 0.721038 9.32894 0.930408 9.61871L1.74097 9.03305ZM7.71491 8.54345C8.03455 8.49504 8.36282 8.22415 8.36282 7.80883H7.36282C7.36282 7.72905 7.39654 7.6639 7.4357 7.62292C7.47288 7.584 7.51852 7.56179 7.56518 7.55472L7.71491 8.54345ZM14.0969 7.65401C13.6268 8.1447 13.6561 8.88152 14.0444 9.3675L14.8256 8.74328C14.7136 8.60308 14.7346 8.43388 14.819 8.34581L14.0969 7.65401ZM7.86282 5C7.71015 5 7.58639 4.87624 7.58639 4.72357H8.58639C8.58639 4.32395 8.26244 4 7.86282 4V5ZM14.5853 7.54388C14.475 7.43826 14.4713 7.26327 14.5769 7.15303L15.299 7.84484C15.5754 7.55628 15.5656 7.09824 15.2771 6.82179L14.5853 7.54388ZM8.13925 4.72357C8.13925 4.87624 8.01549 5 7.86282 5V4C7.4632 4 7.13925 4.32395 7.13925 4.72357H8.13925ZM14.9761 7.5355C14.8705 7.64574 14.6955 7.64949 14.5853 7.54388L15.2771 6.82179C14.9885 6.54533 14.5305 6.55514 14.254 6.8437L14.9761 7.5355ZM7.14895 6.16155C7.68064 6.09859 8.13925 5.65708 8.13925 5.07155H7.13925C7.13925 5.08912 7.13313 5.10817 7.11492 5.12754C7.09555 5.14814 7.06608 5.16438 7.03135 5.16849L7.14895 6.16155ZM12.7215 8.04945C13.2515 8.48419 14.0616 8.49002 14.5688 7.96065L13.8467 7.26885C13.7334 7.38711 13.5191 7.41029 13.3557 7.27625L12.7215 8.04945ZM4.34917 5.73785C4.21696 5.81419 4.0479 5.7689 3.97156 5.63669L4.83756 5.13665C4.63774 4.79058 4.19521 4.67203 3.84914 4.87185L4.34917 5.73785ZM11.2043 5.70097C10.9049 6.28428 11.1424 6.96692 11.6623 7.2897L12.1898 6.44013C12.0747 6.36867 12.052 6.23923 12.0939 6.15759L11.2043 5.70097ZM4.45034 5.36024C4.52668 5.49245 4.48138 5.66151 4.34917 5.73785L3.84914 4.87185C3.50307 5.07167 3.38451 5.5142 3.58433 5.86027L4.45034 5.36024ZM11.5818 5.57083C11.4459 5.50112 11.3924 5.3345 11.4621 5.19867L12.3517 5.65529C12.5342 5.29976 12.3939 4.86363 12.0384 4.68116L11.5818 5.57083ZM4.23267 7.20956C4.73618 6.90246 4.9543 6.23305 4.63732 5.68406L3.77131 6.1841C3.78455 6.20702 3.78898 6.23484 3.77983 6.26748C3.77024 6.30166 3.74697 6.33447 3.71195 6.35583L4.23267 7.20956ZM11.9539 5.45112C11.8842 5.58694 11.7176 5.64054 11.5818 5.57083L12.0384 4.68116C11.6829 4.49869 11.2467 4.63898 11.0643 4.9945L11.9539 5.45112ZM1.30947 8.10589C1.75129 8.57218 2.46566 8.56893 2.92349 8.17171L2.26816 7.41638C2.18697 7.48681 2.08438 7.46981 2.03537 7.41809L1.30947 8.10589ZM8.69415 5.16472C8.65938 5.16068 8.62982 5.14447 8.61044 5.12396C8.59227 5.10471 8.58639 5.08606 8.58639 5.06912H7.58639C7.58639 5.65606 8.04765 6.09644 8.57895 6.15806L8.69415 5.16472ZM14.0444 9.3675C13.9741 9.27952 13.9642 9.15769 14.0194 9.05952L14.8911 9.54943C15.0356 9.29246 15.0096 8.97357 14.8256 8.74328L14.0444 9.3675ZM1.41377 7.81406C1.30295 7.91907 1.12798 7.91436 1.02298 7.80353L1.74887 7.11573C1.47401 6.82565 1.01604 6.81331 0.725962 7.08817L1.41377 7.81406ZM10.1044 6.52499C10.6933 6.73928 11.4033 6.52394 11.7141 5.91832L10.8245 5.4617C10.768 5.57167 10.6133 5.64603 10.4464 5.58527L10.1044 6.52499Z" fill="black"/>
</svg>
